<?xml version="1.0" encoding="utf-8"?><!DOCTYPE svg PUBLIC "-//W3C//DTD SVG 1.1//EN" "http://www.w3.org/Graphics/SVG/1.1/DTD/svg11.dtd"><svg viewBox="0 0 363 98" xmlns="http://www.w3.org/2000/svg" xmlns:xlink="http://www.w3.org/1999/xlink"><style>:root>svg{display:none}:root>svg:target{display:block}</style><svg fill="none" viewBox="0 0 24 24" id="author--icons_for_cards" xmlns="http://www.w3.org/2000/svg"><rect width="24" height="24" rx="6" fill="#4039FF" fill-opacity=".08"/><g clip-path="url(#aa)" stroke="#4039FF" stroke-linecap="round" stroke-linejoin="round"><path d="M9.766 11.05v3.272M11.953 14.322v-1.91a1.363 1.363 0 1 1 2.727 0v1.91M9.769 9.072a.137.137 0 1 0 .137.137.137.137 0 0 0-.137-.137Z"/><path d="M16.716 7.286a6.667 6.667 0 1 1-9.428 9.428 6.667 6.667 0 0 1 9.428-9.428Z"/></g><defs><clipPath id="aa"><path fill="#fff" transform="translate(4 4)" d="M0 0h16v16H0z"/></clipPath></defs></svg><svg fill="none" viewBox="0 0 18 18" id="footer--BELARUS1" xmlns="http://www.w3.org/2000/svg"><g clip-path="url(#ba)"><mask id="bb" style="mask-type:luminance" maskUnits="userSpaceOnUse" x="-1" y="0" width="31" height="18"><path d="M29.852 0H-1v18h30.852V0Z" fill="#fff"/></mask><g mask="url(#bb)"><path d="M29.852 0H-1v11.997h30.852V0Z" fill="#BA0019"/><path d="M29.852 11.997H-1V18h30.852v-6.003Z" fill="#3E9A13"/><path d="M2.962 0H-1v18h3.962V0Z" fill="#fff"/><path d="M-.523 17.669h.174v-.496h-.174v.496Zm1.415 0h.175v-.496H.892v.496Zm1.407 0h.184v-.496h-.184v.496ZM.184 16.336H.36v-.414H.184v.414Zm1.416 0h.156v-.414H1.6v.414Zm-2.123-1.075h.174v-.497h-.174v.497Zm1.415 0h.175v-.497H.892v.497Zm1.407 0h.184v-.497h-.184v.497Zm-2.464.661H.01v-.413h.174v-.414H.36v.414h.175v.413h.184v.414H.534v.423H.359v.414H.184v-.414H.01v-.423h-.175v-.414Zm1.407 0h.183v-.413H1.6v-.414h.156v.414h.175v.413h.193v.414H1.95v.423h-.193v.414H1.6v-.414h-.175v-.423h-.183v-.414Zm.358-1.654v.44h-.184v.415h-.174v.413h-.175v.414H.892v-.414H.718v-.413H.534v-.414H.359v-.414H.184v.414H.01v.414h-.175v.413h-.184v.414h-.174v.414h.174v.422h.184v.414H.01v.414h.174v.414H.36v-.414h.175V17.2h.184v-.413h.174v-.423h.175v.422h.175v.414h.183v.414H1.6v.414h.156v-.414h.175V17.2h.193v-.413H2.3v-.423h.184v-.414h-.184v-.414h-.175v-.413H1.95v-.414h-.193v-.414l-.156-.027Zm.432-.414h.092v-.165h.092v.165H2.3v.165h-.083v.166h-.092v-.166h-.092v-.165Zm0-.58v.249H1.95v.267h-.091v.33h.091v.249h.083v.248H2.3v-.248h.092v-.248h.083v-.331H2.39v-.249h-.092v-.248l-.267-.018Zm-2.38.58h.091v-.165h.092v.165h.083v.165h-.083v.166h-.092v-.166h-.092v-.165Zm0-.58v.249h-.084v.267h-.091v.33h.091v.249h.083v.248h.267v-.248H.01v-.248h.082v-.331H.01v-.249h-.092v-.248l-.267-.018Zm.974.58h.092v-.165h.12v.165h.091v.165H.837v.166h-.12v-.166H.627v-.165Zm.441 0h.092v-.165h.083v.165h.092v.165h-.092v.166h-.083v-.166h-.092v-.165Zm0-.58v.249H.892v-.248H.626v.248H.534v.267H.45v.33h.083v.249h.092v.248h.266v-.248h.175v.248h.267v-.248h.091v-.248h.083v-.331h-.083v-.249h-.091v-.248l-.267-.018Zm-1.59-.174h.174v-.496h-.174v.496Zm1.415 0h.175v-.496H.892v.496Zm1.407 0h.184v-.496h-.184v.496Zm-2.822-2.068h.174V10.7h-.174v.33Zm2.822 0h.184V10.7h-.184v.33ZM.892 9.873h.175V9.46H.892v.413ZM-.523 8.752v.496h.174v-.496h-.174Zm.974 0v.496h.175v-.496H.45Zm.92 0v.496h.174v-.496H1.37Zm.919 0v.496h.183v-.496H2.29Zm-1.131-.294v.165h-.092v.129H.892v-.129H.837v-.165H.626v.248h.092v.129h.12v.358h-.12v.129H.626v.248h.211v-.193H.93v-.129h.175v.129h.092v.165h.174v-.248h-.092v-.101h-.12v-.358h.084v-.13h.092v-.247h-.175Zm-.267.082h.175v-.413H.892v.413ZM-.523 7.3h.174v-.332h-.174V7.3Zm2.822 0h.184v-.332h-.184V7.3ZM-.523 5.395h.174v-.505h-.174v.505Zm1.415 0h.175v-.505H.892v.505Zm1.407 0h.184v-.505h-.184v.505ZM.184 9.01v-.174H.36V8.55h.175v-.34h.303v-.387H.93V7.63h.175v.184h.092v.395h.266v.34h.175v.286h.12v.358H1.6v.294h-.175v.331H1.16v.386h-.092v.193H.892v-.193H.837v-.386H.534v-.33H.359v-.295H.184V9.01ZM1.6 4.413v.413h-.184v.414h-.174v.423h-.175v.414H.892v-.432H.718v-.423H.534v-.414H.359v-.414H.184v.414H.01v.414h-.175v.423h-.184v.413h-.174v.377h.174v.414h.184v.414H.01v.413h.174V7.3H.36v-.413h.175v-.45H.359v-.46h.175v.33h.184v.662h.12v.386H.533v.331H.359v.249H.184v.413H.01v-.386h-.175v-.248h-.184v-.248h-.174v.744h.174v.34h.184v.286H.01v.358h-.175v.294h-.184v.331h-.174v.745h.174v-.248h.184v-.249H.01v-.413h.174v.413H.36v.249h.175v.33h.303v.387h-.12v.662H.535v.34H.359v-.506h.175v-.414H.359v-.413H.184v-.414H.01v.414h-.175v.413h-.184v.414h-.174v.423h.174v.414h.184v.413H.01v.423h.174v.414H.36V13.2h.175v-.423h.184v-.413h.174v-.414h.175v.414h.175v.413h.183v.423H1.6v.414h.156V13.2h.175v-.423h.193v-.413H2.3v-.414h.184v-.414h-.184v-.413h-.175v-.414H1.95v-.414h-.193v.414H1.6v.414h-.184v.413H1.6v.506h-.184v-.34h-.174v-.671h-.083v-.414h.266v-.331H1.6v-.248h.156v-.414h.175v.414h.193v.248H2.3v.248h.184v-.744h-.184V9.46h-.175v-.267H1.95v-.358h.175V8.55H2.3v-.34h.184v-.745h-.184v.248h-.175v.248H1.95v.414h-.193V7.96H1.6v-.248h-.175v-.359H1.16v-.386h.083v-.662h.174v-.33H1.6v.46h-.184v.413H1.6v.414h.156v.413h.175V7.3h.193v-.413H2.3v-.45h.184v-.378h-.184v-.413h-.175v-.423H1.95v-.414h-.193v-.414l-.156.019ZM-.349 3.98h.092v-.166h.092v.166h.083v.165h-.083v.175h-.092v-.175h-.092v-.165Zm0-.304h-.083v.248h-.091v.304h.091v.257h.083v.24h.267v-.24H.01V4.23h.082v-.331H.01v-.22h-.092V3.4H-.35v.276Zm.975.331h.092v-.193h.12v.166h.091v.165H.837v.175h-.12v-.175H.627v-.138Zm.441 0h.092v-.193h.083v.166h.092v.165h-.092v.175h-.083v-.175h-.092v-.138Zm-.441-.33H.534v.247H.45v.304h.083v.257h.092v.24h.266v-.24h.175v.24h.267v-.24h.091V4.23h.083v-.331h-.083v-.22h-.091V3.4h-.267v.276H.892v-.276H.626v.276Zm1.406.33h.092v-.193h.092v.166H2.3v.165h-.083v.166h-.092v-.166h-.092v-.138Zm0-.579v.248H1.95v.248h-.091v.304h.091v.248h.083v.248H2.3v-.248h.092v-.248h.083v-.331H2.39v-.22h-.092V3.4l-.267.028Zm-2.555-.193h.174v-.478h-.174v.478Zm1.415 0h.175v-.478H.892v.478Zm1.407 0h.184v-.478h-.184v.478ZM.184 2.078H.36v-.423H.184v.423Zm1.416 0h.156v-.423H1.6v.423ZM-.523.828h.174V.33h-.174v.496Zm1.415 0h.175V.33H.892v.496Zm1.407 0h.184V.33h-.184v.496Zm-2.464.827H.01V1.25h.174V.827H.36v.423h.175v.405h.184v.423H.534v.413H.359v.414H.184v-.414H.01v-.413h-.175v-.423Zm1.407 0h.183V1.25H1.6V.827h.156v.423h.175v.405h.193v.423H1.95v.413h-.193v.414H1.6v-.414h-.175v-.413h-.183v-.423ZM1.6 0v.414h-.175v.413h-.183v.423h-.175v.405H.892V1.25H.718V.827H.534V.414H.359V0H.184v.414H.01v.413h-.175v.423h-.184v.405h-.174v.423h.174v.413h.184v.414H.01v.414h.174v.413H.36V3.32h.175v-.414h.184v-.414h.174v-.413h.175v.413h.175v.414h.174v.414H1.6v.413h.156V3.32h.175v-.414h.193v-.414H2.3v-.413h.184v-.423h-.184V1.25h-.175V.827H1.95V.414h-.193V0H1.6Z" fill="#BA0019"/></g></g><defs><clipPath id="ba"><path fill="#fff" transform="translate(-1)" d="M0 0h30.852v18H0z"/></clipPath></defs></svg><svg fill="none" viewBox="0 0 363 14" id="footer--Vector2511" xmlns="http://www.w3.org/2000/svg"><path d="M1 5.098 362 1 21.819 13H333.27" stroke="#4039FF" stroke-width="2" stroke-linecap="round"/></svg><svg fill="none" viewBox="0 0 18 18" id="footer--lang" xmlns="http://www.w3.org/2000/svg"><g clip-path="url(#da)" stroke="#191C1F" stroke-linecap="round" stroke-linejoin="round"><path d="m14.313 14.013-1.594-3.187-1.594 3.187M11.406 13.451h2.625"/><path d="M12.717 16.5a3.788 3.788 0 1 1 0-7.575 3.788 3.788 0 0 1 0 7.575ZM3.828 1.575h2.925a2.25 2.25 0 0 1 2.25 2.25V6.75A2.25 2.25 0 0 1 6.753 9H3.828a2.25 2.25 0 0 1-2.25-2.25V3.825a2.25 2.25 0 0 1 2.25-2.25ZM6.81 4.444H3.774M5.29 3.938v.506"/><path d="M6.051 4.444c0 1.305-1.02 2.362-2.278 2.362"/><path d="M6.81 6.807c-.546 0-1.034-.291-1.38-.75M10.93 3.687h1.1a2.748 2.748 0 0 1 2.747 2.748M10.93 3.687l.824.824M11.754 2.862l-.824.824M7.082 14.313h-1.1a2.748 2.748 0 0 1-2.748-2.748M7.082 14.313l-.824-.824M6.258 15.138l.824-.824"/></g><defs><clipPath id="da"><path fill="#fff" d="M0 0h18v18H0z"/></clipPath></defs></svg><svg viewBox="0 0 101 97" id="header--menu_icon_1" xmlns="http://www.w3.org/2000/svg"><g stroke-width="2" fill="none" stroke="#87898a"><path vector-effect="non-scaling-stroke" d="m54.74 20.73.02-10.39q0-2.73-2.29-4.2-.85-.55-1.73-.39-3.49.64-3.49 4.18v10.79q0 .76-.44.14c-1.36-1.92-3.77-3.89-6.15-2.13-2.88 2.13-2.16 4.7.09 6.78q4.07 3.78 7.45 7.51a3.71 3.71 0 0 0 5.39.12l8.51-8.59q2.59-2.61-.06-5.16l-.38-.37q-2.49-2.39-4.88.09l-1.7 1.76q-.34.36-.34-.14"/><path vector-effect="non-scaling-stroke" d="M84.37 40.98a4.03 3.98 32.8 0 1 .38 1.7v33.57a4.5 4.5 0 0 1-4.5 4.5h-58.5a4.5 4.5 0 0 1-4.5-4.5v-33.5a4.5 4.5 0 0 1 4.5-4.5H34.4q2.89 0 3.57-2.81.13-.51.1-1.03-.16-3.69-3.86-3.64-4.35.06-9.37-.09-5.13-.14-8.25 1.32c-4.88 2.28-6.97 6.89-6.9 12.17q.19 15.52 0 30.25c-.12 8.95 5.16 13.92 13.96 13.88q28.06-.12 55.64-.02c5.12.02 9.55-2.32 11.86-7.1q1.3-2.67 1.19-9.36-.23-14.35-.03-28.22c.11-7.54-5.2-12.71-12.83-12.82q-5.31-.08-11.61-.02c-5.34.05-5.33 7.33-.31 7.44q5.85.12 12.2.02c2.05-.04 3.72.83 4.61 2.76"/><path vector-effect="non-scaling-stroke" d="M31.81 51.07a3.62 3.62 0 0 0-3.62-3.62h-.26a3.62 3.62 0 0 0-3.62 3.62v16.86a3.62 3.62 0 0 0 3.62 3.62h.26a3.62 3.62 0 0 0 3.62-3.62V51.07M62.99 59.54a12 12 0 0 0-12-12 12 12 0 0 0-12 12 12 12 0 0 0 12 12 12 12 0 0 0 12-12M77.69 51.07a3.62 3.62 0 0 0-3.62-3.62h-.26a3.62 3.62 0 0 0-3.62 3.62v16.86a3.62 3.62 0 0 0 3.62 3.62h.26a3.62 3.62 0 0 0 3.62-3.62V51.07"/><path vector-effect="non-scaling-stroke" d="M55.52 59.55a4.53 4.53 0 0 0-4.53-4.53 4.53 4.53 0 0 0-4.53 4.53 4.53 4.53 0 0 0 4.53 4.53 4.53 4.53 0 0 0 4.53-4.53"/></g><path fill="#f5f5f5" d="M0 0h101v97H0V0Zm54.74 20.73.02-10.39q0-2.73-2.29-4.2-.85-.55-1.73-.39-3.49.64-3.49 4.18v10.79q0 .76-.44.14c-1.36-1.92-3.77-3.89-6.15-2.13-2.88 2.13-2.16 4.7.09 6.78q4.07 3.78 7.45 7.51a3.71 3.71 0 0 0 5.39.12l8.51-8.59q2.59-2.61-.06-5.16l-.38-.37q-2.49-2.39-4.88.09l-1.7 1.76q-.34.36-.34-.14Zm29.63 20.25a4.03 3.98 32.8 0 1 .38 1.7v33.57a4.5 4.5 0 0 1-4.5 4.5h-58.5a4.5 4.5 0 0 1-4.5-4.5v-33.5a4.5 4.5 0 0 1 4.5-4.5H34.4q2.89 0 3.57-2.81.13-.51.1-1.03-.16-3.69-3.86-3.64-4.35.06-9.37-.09-5.13-.14-8.25 1.32c-4.88 2.28-6.97 6.89-6.9 12.17q.19 15.52 0 30.25c-.12 8.95 5.16 13.92 13.96 13.88q28.06-.12 55.64-.02c5.12.02 9.55-2.32 11.86-7.1q1.3-2.67 1.19-9.36-.23-14.35-.03-28.22c.11-7.54-5.2-12.71-12.83-12.82q-5.31-.08-11.61-.02c-5.34.05-5.33 7.33-.31 7.44q5.85.12 12.2.02c2.05-.04 3.72.83 4.61 2.76ZM31.81 51.07a3.62 3.62 0 0 0-3.62-3.62h-.26a3.62 3.62 0 0 0-3.62 3.62v16.86a3.62 3.62 0 0 0 3.62 3.62h.26a3.62 3.62 0 0 0 3.62-3.62V51.07Zm31.18 8.47a12 12 0 0 0-12-12 12 12 0 0 0-12 12 12 12 0 0 0 12 12 12 12 0 0 0 12-12Zm14.7-8.47a3.62 3.62 0 0 0-3.62-3.62h-.26a3.62 3.62 0 0 0-3.62 3.62v16.86a3.62 3.62 0 0 0 3.62 3.62h.26a3.62 3.62 0 0 0 3.62-3.62V51.07Z"/><path fill="#191c1f" d="m55.08 20.87 1.7-1.76q2.39-2.48 4.88-.09l.38.37q2.65 2.55.06 5.16l-8.51 8.59a3.71 3.71 0 0 1-5.39-.12q-3.38-3.73-7.45-7.51c-2.25-2.08-2.97-4.65-.09-6.78 2.38-1.76 4.79.21 6.15 2.13q.44.62.44-.14V9.93q0-3.54 3.49-4.18.88-.16 1.73.39 2.29 1.47 2.29 4.2l-.02 10.39q0 .5.34.14Z"/><path fill="#191c1f" d="M84.37 40.98c-.89-1.93-2.56-2.8-4.61-2.76q-6.35.1-12.2-.02c-5.02-.11-5.03-7.39.31-7.44q6.3-.06 11.61.02c7.63.11 12.94 5.28 12.83 12.82q-.2 13.87.03 28.22.11 6.69-1.19 9.36c-2.31 4.78-6.74 7.12-11.86 7.1q-27.58-.1-55.64.02c-8.8.04-14.08-4.93-13.96-13.88q.19-14.73 0-30.25c-.07-5.28 2.02-9.89 6.9-12.17q3.12-1.46 8.25-1.32 5.02.15 9.37.09 3.7-.05 3.86 3.64.03.52-.1 1.03-.68 2.81-3.57 2.81H21.75a4.5 4.5 0 0 0-4.5 4.5v33.5a4.5 4.5 0 0 0 4.5 4.5h58.5a4.5 4.5 0 0 0 4.5-4.5V42.68a4.03 3.98 32.8 0 0-.38-1.7Z"/><rect fill="#191c1f" x="24.31" y="47.45" width="7.5" height="24.1" rx="3.62"/><path fill="#191c1f" d="M62.99 59.54a12 12 0 0 1-12 12 12 12 0 0 1-12-12 12 12 0 0 1 12-12 12 12 0 0 1 12 12Zm-7.47.01a4.53 4.53 0 0 0-4.53-4.53 4.53 4.53 0 0 0-4.53 4.53 4.53 4.53 0 0 0 4.53 4.53 4.53 4.53 0 0 0 4.53-4.53Z"/><rect fill="#191c1f" x="70.19" y="47.45" width="7.5" height="24.1" rx="3.62"/><circle fill="#f5f5f5" cx="50.99" cy="59.55" r="4.53"/></svg><svg viewBox="0 0 108 97" id="header--menu_icon_2" xmlns="http://www.w3.org/2000/svg"><g stroke-width="2" fill="none" stroke="#87898a"><path vector-effect="non-scaling-stroke" d="M99.859 16.221a8.63 8.63 0 0 0-8.6-8.66l-34.9-.122a8.63 8.63 0 0 0-8.66 8.6l-.078 22.2a8.63 8.63 0 0 0 8.6 8.66l34.9.122a8.63 8.63 0 0 0 8.66-8.6l.078-22.2M25.69 19.88c-6.27-.72-11.36.7-14.29 6.45q-1.35 2.66-1.23 7.29.14 5.42.01 10.44a2.6 2.58 21.8 0 0 .86 1.99q1.15 1.03 2.35.94 2.89-.22 3.01-3.12.21-5.1.03-11.65c-.17-5.9 4.9-6.48 9.32-6.19q.81.05.23.62l-2.51 2.48q-1.76 1.75-.3 3.74.42.57.96 1.01 1.91 1.55 3.67-.17l8.68-8.47a3.11 3.11 0 0 0 .01-4.45l-8.76-8.6q-1.93-1.89-3.82.03l-.53.55q-1.97 1.99.01 3.98l2.56 2.58q.65.65-.26.55M62.34 62.13a8.86 8.86 0 0 0-8.86-8.86H19.02a8.86 8.86 0 0 0-8.86 8.86v21.72a8.86 8.86 0 0 0 8.86 8.86h34.46a8.86 8.86 0 0 0 8.86-8.86V62.13M84.11 80.27q2.19-.07 4.55.01c4.35.16 8.1-2.71 9.92-6.53q1.36-2.86 1.25-7.01-.13-5.48-.07-10.47.04-2.47-2.39-2.92-.41-.08-.82-.06-2.97.15-3.01 3.12-.06 5.54 0 11.66c.03 2.43-1.31 5.27-3.83 5.72q-2.34.41-5.42.17-.93-.07-.22-.68 1.65-1.42 3.01-3.23 1.48-1.98-.53-3.41l-.6-.43q-2.15-1.52-4.01.34l-8.43 8.44a3.24 3.23 43.9 0 0 .09 4.65q4.01 3.73 8.09 7.86 2.22 2.24 4.54.33.16-.14.3-.32 1.78-2.39-.35-4.47l-2.28-2.23q-.54-.52.21-.54"/><path vector-effect="non-scaling-stroke" d="m54.43 19.85 38.6.06a.5.5 0 0 0 .51-.5V16a2.83 2.49.1 0 0-2.82-2.49l-33.94-.06a2.83 2.49.1 0 0-2.84 2.49v3.41a.5.5 0 0 0 .49.5M93.06 26.12H54.44a.48.48 0 0 0-.48.48v11.47a2.99 2.71 0 0 0 2.99 2.71h33.6a2.99 2.71 0 0 0 2.99-2.71V26.6a.48.48 0 0 0-.48-.48M16.68 60.98l-.32 3.3q-.15 1.48 1.29 1.47 18.09-.06 37.08 0 1.39.01 1.33-1.38l-.14-3.29a1.65 1.65 0 0 0-1.65-1.58H18.32a1.65 1.65 0 0 0-1.64 1.48M56.01 84.24l.01-11.74q0-.52-.52-.52H17q-.52 0-.52.52l.01 11.99a2.01 2 90 0 0 2 2.01h35.26a2.26 2.26 0 0 0 2.26-2.26"/></g><path fill="#f5f5f5" d="M0 0h108v97H0V0Zm99.859 16.221a8.63 8.63 0 0 0-8.6-8.66l-34.9-.122a8.63 8.63 0 0 0-8.66 8.6l-.078 22.2a8.63 8.63 0 0 0 8.6 8.66l34.9.122a8.63 8.63 0 0 0 8.66-8.6l.078-22.2ZM25.69 19.88c-6.27-.72-11.36.7-14.29 6.45q-1.35 2.66-1.23 7.29.14 5.42.01 10.44a2.6 2.58 21.8 0 0 .86 1.99q1.15 1.03 2.35.94 2.89-.22 3.01-3.12.21-5.1.03-11.65c-.17-5.9 4.9-6.48 9.32-6.19q.81.05.23.62l-2.51 2.48q-1.76 1.75-.3 3.74.42.57.96 1.01 1.91 1.55 3.67-.17l8.68-8.47a3.11 3.11 0 0 0 .01-4.45l-8.76-8.6q-1.93-1.89-3.82.03l-.53.55q-1.97 1.99.01 3.98l2.56 2.58q.65.65-.26.55Zm36.65 42.25a8.86 8.86 0 0 0-8.86-8.86H19.02a8.86 8.86 0 0 0-8.86 8.86v21.72a8.86 8.86 0 0 0 8.86 8.86h34.46a8.86 8.86 0 0 0 8.86-8.86V62.13Zm21.77 18.14q2.19-.07 4.55.01c4.35.16 8.1-2.71 9.92-6.53q1.36-2.86 1.25-7.01-.13-5.48-.07-10.47.04-2.47-2.39-2.92-.41-.08-.82-.06-2.97.15-3.01 3.12-.06 5.54 0 11.66c.03 2.43-1.31 5.27-3.83 5.72q-2.34.41-5.42.17-.93-.07-.22-.68 1.65-1.42 3.01-3.23 1.48-1.98-.53-3.41l-.6-.43q-2.15-1.52-4.01.34l-8.43 8.44a3.24 3.23 43.9 0 0 .09 4.65q4.01 3.73 8.09 7.86 2.22 2.24 4.54.33.16-.14.3-.32 1.78-2.39-.35-4.47l-2.28-2.23q-.54-.52.21-.54Z"/><path fill="#191c1f" d="M99.781 38.421a8.63 8.63 0 0 1-8.66 8.6l-34.9-.122a8.63 8.63 0 0 1-8.6-8.66l.078-22.2a8.63 8.63 0 0 1 8.66-8.6l34.9.122a8.63 8.63 0 0 1 8.6 8.66l-.078 22.2ZM54.43 19.85l38.6.06a.5.5 0 0 0 .51-.5V16a2.83 2.49.1 0 0-2.82-2.49l-33.94-.06a2.83 2.49.1 0 0-2.84 2.49v3.41a.5.5 0 0 0 .49.5Zm38.63 6.27H54.44a.48.48 0 0 0-.48.48v11.47a2.99 2.71 0 0 0 2.99 2.71h33.6a2.99 2.71 0 0 0 2.99-2.71V26.6a.48.48 0 0 0-.48-.48ZM25.95 19.33l-2.56-2.58q-1.98-1.99-.01-3.98l.53-.55q1.89-1.92 3.82-.03l8.76 8.6a3.11 3.11 0 0 1-.01 4.45l-8.68 8.47q-1.76 1.72-3.67.17-.54-.44-.96-1.01-1.46-1.99.3-3.74l2.51-2.48q.58-.57-.23-.62c-4.42-.29-9.49.29-9.32 6.19q.18 6.55-.03 11.65-.12 2.9-3.01 3.12-1.2.09-2.35-.94a2.6 2.58 21.8 0 1-.86-1.99q.13-5.02-.01-10.44-.12-4.63 1.23-7.29c2.93-5.75 8.02-7.17 14.29-6.45q.91.1.26-.55Z"/><path fill="#f5f5f5" d="M54.43 19.85a.5.5 0 0 1-.49-.5v-3.41a2.83 2.49.1 0 1 2.84-2.49l33.94.06A2.83 2.49.1 0 1 93.54 16v3.41a.5.5 0 0 1-.51.5l-38.6-.06ZM93.06 26.12a.48.48 0 0 1 .48.48v11.47a2.99 2.71 0 0 1-2.99 2.71h-33.6a2.99 2.71 0 0 1-2.99-2.71V26.6a.48.48 0 0 1 .48-.48h38.62Z"/><path fill="#191c1f" d="M62.34 83.85a8.86 8.86 0 0 1-8.86 8.86H19.02a8.86 8.86 0 0 1-8.86-8.86V62.13a8.86 8.86 0 0 1 8.86-8.86h34.46a8.86 8.86 0 0 1 8.86 8.86v21.72ZM16.68 60.98l-.32 3.3q-.15 1.48 1.29 1.47 18.09-.06 37.08 0 1.39.01 1.33-1.38l-.14-3.29a1.65 1.65 0 0 0-1.65-1.58H18.32a1.65 1.65 0 0 0-1.64 1.48Zm39.33 23.26.01-11.74q0-.52-.52-.52H17q-.52 0-.52.52l.01 11.99a2.01 2 90 0 0 2 2.01h35.26a2.26 2.26 0 0 0 2.26-2.26ZM83.9 80.81l2.28 2.23q2.13 2.08.35 4.47-.14.18-.3.32-2.32 1.91-4.54-.33-4.08-4.13-8.09-7.86a3.24 3.23 43.9 0 1-.09-4.65l8.43-8.44q1.86-1.86 4.01-.34l.6.43q2.01 1.43.53 3.41-1.36 1.81-3.01 3.23-.71.61.22.68 3.08.24 5.42-.17c2.52-.45 3.86-3.29 3.83-5.72q-.06-6.12 0-11.66.04-2.97 3.01-3.12.41-.02.82.06 2.43.45 2.39 2.92-.06 4.99.07 10.47.11 4.15-1.25 7.01c-1.82 3.82-5.57 6.69-9.92 6.53q-2.36-.08-4.55-.01-.75.02-.21.54Z"/><path fill="#f5f5f5" d="M18.32 59.5h35.95a1.65 1.65 0 0 1 1.65 1.58l.14 3.29q.06 1.39-1.33 1.38-18.99-.06-37.08 0-1.44.01-1.29-1.47l.32-3.3a1.65 1.65 0 0 1 1.64-1.48ZM56.01 84.24a2.26 2.26 0 0 1-2.26 2.26H18.49a2.01 2 90 0 1-2-2.01l-.01-11.99q0-.52.52-.52h38.5q.52 0 .52.52l-.01 11.74Z"/></svg><svg viewBox="0 0 100 93" id="header--menu_icon_3" xmlns="http://www.w3.org/2000/svg"><g stroke-width="2" fill="none" stroke="#87898a"><path vector-effect="non-scaling-stroke" d="M81.7 31.79q-2.73-.02-5.67-.07c-18.96-.34-19.27 26.42-.65 27.03q3.11.11 6.26-.06.74-.04.74.69.02 4.12-.05 8.26c-.09 5.14-3.83 7.9-8.65 7.88q-15.72-.06-30.33.01a2.6 2.6 0 0 0-2.59 2.56l-.01.3q-.06 3.39 3.34 3.38 14.76-.08 30.08.03 8.57.06 12.81-7.35c2.48-4.32 1.58-10.84 1.66-15.92q.01-.84.76-1.23c2-1.05 3.25-3.59 3.31-5.7q.18-6.3-.02-12.87-.12-3.76-3.54-6a1.02 1.01 14.9 0 1-.46-.79c-.23-4.4.57-9.87-.74-13.79q-2.06-6.14-8.21-8.51-2.63-1.02-7.73-.98-25.53.21-49.9.04c-9.12-.07-14.86 6.01-14.77 15.09q.06 7.17.04 12.7-.01 3.01 2.97 3.48.49.08.98-.1 2.11-.79 2.21-3.04.22-4.82.04-10.83c-.18-5.98 1.16-11.02 7.91-11.01q23.37.06 52.19-.03c10.05-.04 8.81 8.29 8.7 16.16q-.01.68-.68.67"/><path vector-effect="non-scaling-stroke" d="M55.27 32.56a3.04 3.04 0 0 0-3.04-3.04H31.27a3.04 3.04 0 0 0-3.04 3.04v.18a3.04 3.04 0 0 0 3.04 3.04h20.96a3.04 3.04 0 0 0 3.04-3.04v-.18M23.09 81.68q3.35.33 6.04-1.03c5.52-2.78 7.34-10.44 2.51-14.98q-.49-.46-.19-1.07 4.02-8.12-3.19-12.93-2.17-1.44-5.45-1.35-.71.02-.62-.7c.38-2.95-2.91-4.2-5.12-2.72q-.54.36-.77.95-.33.85-.34 1.71 0 .67-.67.68l-5.47.04a2.48 2.47-.2 0 0-2.46 2.47l-.01 26.17a2.82 2.82 0 0 0 2.82 2.82l5.13.01q.74 0 .69.74c-.31 4.27 6.2 4.51 6.25-.05q.01-.85.85-.76M86.52 51.49l.02-12.52a.99.99 0 0 0-.99-1l-9.86-.01a7.81 7.13.1 0 0-7.82 7.11v.24a7.81 7.13.1 0 0 7.8 7.15l9.86.01a.99.99 0 0 0 .99-.98"/><path vector-effect="non-scaling-stroke" d="m13.63 57.06-.02 5.6a.31.31 0 0 0 .3.31l9.49.05a3.3 3.09.3 0 0 3.32-3.08v-.04a3.3 3.09.3 0 0-3.28-3.1l-9.49-.05a.31.31 0 0 0-.32.31M13.61 69.64v5.58a.22.22 0 0 0 .22.22h11.33a3.03 2.95 0 0 0 3.03-2.95v-.12a3.03 2.95 0 0 0-3.03-2.95H13.83a.22.22 0 0 0-.22.22"/></g><path fill="#f5f5f5" d="M0 0h100v93H0V0Zm81.7 31.79q-2.73-.02-5.67-.07c-18.96-.34-19.27 26.42-.65 27.03q3.11.11 6.26-.06.74-.04.74.69.02 4.12-.05 8.26c-.09 5.14-3.83 7.9-8.65 7.88q-15.72-.06-30.33.01a2.6 2.6 0 0 0-2.59 2.56l-.01.3q-.06 3.39 3.34 3.38 14.76-.08 30.08.03 8.57.06 12.81-7.35c2.48-4.32 1.58-10.84 1.66-15.92q.01-.84.76-1.23c2-1.05 3.25-3.59 3.31-5.7q.18-6.3-.02-12.87-.12-3.76-3.54-6a1.02 1.01 14.9 0 1-.46-.79c-.23-4.4.57-9.87-.74-13.79q-2.06-6.14-8.21-8.51-2.63-1.02-7.73-.98-25.53.21-49.9.04c-9.12-.07-14.86 6.01-14.77 15.09q.06 7.17.04 12.7-.01 3.01 2.97 3.48.49.08.98-.1 2.11-.79 2.21-3.04.22-4.82.04-10.83c-.18-5.98 1.16-11.02 7.91-11.01q23.37.06 52.19-.03c10.05-.04 8.81 8.29 8.7 16.16q-.01.68-.68.67Zm-26.43.77a3.04 3.04 0 0 0-3.04-3.04H31.27a3.04 3.04 0 0 0-3.04 3.04v.18a3.04 3.04 0 0 0 3.04 3.04h20.96a3.04 3.04 0 0 0 3.04-3.04v-.18ZM23.09 81.68q3.35.33 6.04-1.03c5.52-2.78 7.34-10.44 2.51-14.98q-.49-.46-.19-1.07 4.02-8.12-3.19-12.93-2.17-1.44-5.45-1.35-.71.02-.62-.7c.38-2.95-2.91-4.2-5.12-2.72q-.54.36-.77.95-.33.85-.34 1.71 0 .67-.67.68l-5.47.04a2.48 2.47-.2 0 0-2.46 2.47l-.01 26.17a2.82 2.82 0 0 0 2.82 2.82l5.13.01q.74 0 .69.74c-.31 4.27 6.2 4.51 6.25-.05q.01-.85.85-.76Z"/><path fill="#191c1f" d="M82.38 31.12c.11-7.87 1.35-16.2-8.7-16.16q-28.82.09-52.19.03c-6.75-.01-8.09 5.03-7.91 11.01q.18 6.01-.04 10.83-.1 2.25-2.21 3.04-.49.18-.98.1-2.98-.47-2.97-3.48.02-5.53-.04-12.7C7.25 14.71 12.99 8.63 22.11 8.7q24.37.17 49.9-.04 5.1-.04 7.73.98 6.15 2.37 8.21 8.51c1.31 3.92.51 9.39.74 13.79a1.02 1.01 14.9 0 0 .46.79q3.42 2.24 3.54 6 .2 6.57.02 12.87c-.06 2.11-1.31 4.65-3.31 5.7q-.75.39-.76 1.23c-.08 5.08.82 11.6-1.66 15.92q-4.24 7.41-12.81 7.35-15.32-.11-30.08-.03-3.4.01-3.34-3.38l.01-.3a2.6 2.6 0 0 1 2.59-2.56q14.61-.07 30.33-.01c4.82.02 8.56-2.74 8.65-7.88q.07-4.14.05-8.26 0-.73-.74-.69-3.15.17-6.26.06c-18.62-.61-18.31-27.37.65-27.03q2.94.05 5.67.07.67.01.68-.67Zm4.14 20.37.02-12.52a.99.99 0 0 0-.99-1l-9.86-.01a7.81 7.13.1 0 0-7.82 7.11v.24a7.81 7.13.1 0 0 7.8 7.15l9.86.01a.99.99 0 0 0 .99-.98Z"/><rect fill="#191c1f" x="28.23" y="29.52" width="27.04" height="6.26" rx="3.04"/><path fill="#f5f5f5" d="M86.52 51.49a.99.99 0 0 1-.99.98l-9.86-.01a7.81 7.13.1 0 1-7.8-7.15v-.24a7.81 7.13.1 0 1 7.82-7.11l9.86.01a.99.99 0 0 1 .99 1l-.02 12.52Z"/><path fill="#191c1f" d="M22.24 82.44c-.05 4.56-6.56 4.32-6.25.05q.05-.74-.69-.74l-5.13-.01a2.82 2.82 0 0 1-2.82-2.82l.01-26.17a2.48 2.47-.2 0 1 2.46-2.47l5.47-.04q.67-.01.67-.68.01-.86.34-1.71.23-.59.77-.95c2.21-1.48 5.5-.23 5.12 2.72q-.09.72.62.7 3.28-.09 5.45 1.35 7.21 4.81 3.19 12.93-.3.61.19 1.07c4.83 4.54 3.01 12.2-2.51 14.98q-2.69 1.36-6.04 1.03-.84-.09-.85.76Zm-8.61-25.38-.02 5.6a.31.31 0 0 0 .3.31l9.49.05a3.3 3.09.3 0 0 3.32-3.08v-.04a3.3 3.09.3 0 0-3.28-3.1l-9.49-.05a.31.31 0 0 0-.32.31Zm-.02 12.58v5.58a.22.22 0 0 0 .22.22h11.33a3.03 2.95 0 0 0 3.03-2.95v-.12a3.03 2.95 0 0 0-3.03-2.95H13.83a.22.22 0 0 0-.22.22Z"/><path fill="#f5f5f5" d="M13.63 57.06a.31.31 0 0 1 .32-.31l9.49.05a3.3 3.09.3 0 1 3.28 3.1v.04a3.3 3.09.3 0 1-3.32 3.08l-9.49-.05a.31.31 0 0 1-.3-.31l.02-5.6ZM13.61 69.64a.22.22 0 0 1 .22-.22h11.33a3.03 2.95 0 0 1 3.03 2.95v.12a3.03 2.95 0 0 1-3.03 2.95H13.83a.22.22 0 0 1-.22-.22v-5.58Z"/></svg><svg viewBox="0 0 106 98" id="header--menu_icon_4" xmlns="http://www.w3.org/2000/svg"><g stroke-width="2" fill="none" stroke="#87898a"><path vector-effect="non-scaling-stroke" d="M63.05 14.49q-3.81-8.35-12.39-9.15c-9.12-.85-16.55 6.24-16.21 15.56.28 7.83 6.6 13.86 14.26 14.36q.61.04.87.59 4.47 9.52 14.95 8.8 5.45-.37 8.91-3.93c9.55-9.84 3.63-24.63-9.7-25.74q-.49-.04-.69-.49M69.69 64.23c.4-10.18-8.77-10.44-15.97-12.33-7.47-1.97-14.46-.38-20.85 4.38q-.62.46-.95-.24-2.34-4.97-7.18-4.99c-3.49-.02-8.93-.72-11.7 1.04q-3.66 2.32-3.67 6.69-.01 12.38.03 24c.02 5.67 4.2 7.95 9.34 8.04 4.65.07 9.57.49 12.39-3.76q.29-.44.81-.48c6.28-.57 12.45 1.54 18.5 3.07q3.58.92 7.66.18 6.54-1.18 12.88-2.46 5.38-1.08 9.55-5.17 4.82-4.71 8.99-9.26c7.71-8.41-3.22-20.47-12.68-13.68q-3.36 2.41-6.78 5.16a.23.23 0 0 1-.37-.19"/><path vector-effect="non-scaling-stroke" d="M48.34 28.29c.38-4.94 3.29-9.11 7.69-11.4q1.41-.74.31-1.88-5-5.16-10.88-2.42c-4.07 1.9-5.7 6.4-4.25 10.57q1.35 3.91 6.43 5.6a.54.53-78.6 0 0 .7-.47M71.74 29.92a8.57 8.57 0 0 0-8.57-8.57 8.57 8.57 0 0 0-8.57 8.57 8.57 8.57 0 0 0 8.57 8.57 8.57 8.57 0 0 0 8.57-8.57M26.02 58.39a1.15 1.15 0 0 0-1.15-1.15h-8.1a1.15 1.15 0 0 0-1.15 1.15v24.94a1.15 1.15 0 0 0 1.15 1.15h8.1a1.15 1.15 0 0 0 1.15-1.15V58.39M53.22 67.78q3.12-.43 7.03-.22c1.66.09 3.05-.6 3.27-2.41q.5-4.16-2.93-5.06c-5.92-1.56-12.35-3.99-18.16-1.84q-4.86 1.8-9.78 5.75-.38.31-.38.79v14.92q0 .51.51.52 5.21.05 8.48.81 5.34 1.25 10.7 2.57 2.82.7 6.01.03 5.83-1.23 11.38-2.42 4.1-.88 7.71-4.42 4.05-3.97 7.8-7.71 2.22-2.22.11-4.53l-.3-.33q-1.69-1.84-3.68-.33-4.8 3.65-9.65 7.4-3.25 2.51-6.94 2.62-5.12.16-10.63.05Q51 73.92 51 71.14v-.82q0-2.24 2.22-2.54"/></g><path fill="#f5f5f5" d="M0 0h106v98H0V0Zm63.05 14.49q-3.81-8.35-12.39-9.15c-9.12-.85-16.55 6.24-16.21 15.56.28 7.83 6.6 13.86 14.26 14.36q.61.04.87.59 4.47 9.52 14.95 8.8 5.45-.37 8.91-3.93c9.55-9.84 3.63-24.63-9.7-25.74q-.49-.04-.69-.49Zm6.64 49.74c.4-10.18-8.77-10.44-15.97-12.33-7.47-1.97-14.46-.38-20.85 4.38q-.62.46-.95-.24-2.34-4.97-7.18-4.99c-3.49-.02-8.93-.72-11.7 1.04q-3.66 2.32-3.67 6.69-.01 12.38.03 24c.02 5.67 4.2 7.95 9.34 8.04 4.65.07 9.57.49 12.39-3.76q.29-.44.81-.48c6.28-.57 12.45 1.54 18.5 3.07q3.58.92 7.66.18 6.54-1.18 12.88-2.46 5.38-1.08 9.55-5.17 4.82-4.71 8.99-9.26c7.71-8.41-3.22-20.47-12.68-13.68q-3.36 2.41-6.78 5.16a.23.23 0 0 1-.37-.19Z"/><path fill="#191c1f" d="M63.74 14.98c13.33 1.11 19.25 15.9 9.7 25.74q-3.46 3.56-8.91 3.93-10.48.72-14.95-8.8-.26-.55-.87-.59c-7.66-.5-13.98-6.53-14.26-14.36-.34-9.32 7.09-16.41 16.21-15.56q8.58.8 12.39 9.15.2.45.69.49Zm-15.4 13.31c.38-4.94 3.29-9.11 7.69-11.4q1.41-.74.31-1.88-5-5.16-10.88-2.42c-4.07 1.9-5.7 6.4-4.25 10.57q1.35 3.91 6.43 5.6a.54.53-78.6 0 0 .7-.47Zm23.4 1.63a8.57 8.57 0 0 0-8.57-8.57 8.57 8.57 0 0 0-8.57 8.57 8.57 8.57 0 0 0 8.57 8.57 8.57 8.57 0 0 0 8.57-8.57Z"/><path fill="#f5f5f5" d="M56.03 16.89c-4.4 2.29-7.31 6.46-7.69 11.4a.54.53-78.6 0 1-.7.47q-5.08-1.69-6.43-5.6c-1.45-4.17.18-8.67 4.25-10.57q5.88-2.74 10.88 2.42 1.1 1.14-.31 1.88Z"/><circle fill="#f5f5f5" cx="63.17" cy="29.92" r="8.57"/><path fill="#191c1f" d="M69.69 64.23a.23.23 0 0 0 .37.19q3.42-2.75 6.78-5.16c9.46-6.79 20.39 5.27 12.68 13.68q-4.17 4.55-8.99 9.26-4.17 4.09-9.55 5.17-6.34 1.28-12.88 2.46-4.08.74-7.66-.18c-6.05-1.53-12.22-3.64-18.5-3.07q-.52.04-.81.48c-2.82 4.25-7.74 3.83-12.39 3.76-5.14-.09-9.32-2.37-9.34-8.04q-.04-11.62-.03-24 .01-4.37 3.67-6.69c2.77-1.76 8.21-1.06 11.7-1.04q4.84.02 7.18 4.99.33.7.95.24c6.39-4.76 13.38-6.35 20.85-4.38 7.2 1.89 16.37 2.15 15.97 12.33Zm-43.67-5.84a1.15 1.15 0 0 0-1.15-1.15h-8.1a1.15 1.15 0 0 0-1.15 1.15v24.94a1.15 1.15 0 0 0 1.15 1.15h8.1a1.15 1.15 0 0 0 1.15-1.15V58.39Zm27.2 9.39q3.12-.43 7.03-.22c1.66.09 3.05-.6 3.27-2.41q.5-4.16-2.93-5.06c-5.92-1.56-12.35-3.99-18.16-1.84q-4.86 1.8-9.78 5.75-.38.31-.38.79v14.92q0 .51.51.52 5.21.05 8.48.81 5.34 1.25 10.7 2.57 2.82.7 6.01.03 5.83-1.23 11.38-2.42 4.1-.88 7.71-4.42 4.05-3.97 7.8-7.71 2.22-2.22.11-4.53l-.3-.33q-1.69-1.84-3.68-.33-4.8 3.65-9.65 7.4-3.25 2.51-6.94 2.62-5.12.16-10.63.05Q51 73.92 51 71.14v-.82q0-2.24 2.22-2.54Z"/><rect fill="#f5f5f5" x="15.62" y="57.24" width="10.4" height="27.24" rx="1.15"/><path fill="#f5f5f5" d="M53.22 67.78q-2.22.3-2.22 2.54v.82q0 2.78 2.77 2.83 5.51.11 10.63-.05 3.69-.11 6.94-2.62 4.85-3.75 9.65-7.4 1.99-1.51 3.68.33l.3.33q2.11 2.31-.11 4.53-3.75 3.74-7.8 7.71-3.61 3.54-7.71 4.42-5.55 1.19-11.38 2.42-3.19.67-6.01-.03-5.36-1.32-10.7-2.57-3.27-.76-8.48-.81-.51-.01-.51-.52V64.79q0-.48.38-.79 4.92-3.95 9.78-5.75c5.81-2.15 12.24.28 18.16 1.84q3.43.9 2.93 5.06c-.22 1.81-1.61 2.5-3.27 2.41q-3.91-.21-7.03.22Z"/></svg><svg fill="none" viewBox="0 0 26 24" id="review--Star-empty" xmlns="http://www.w3.org/2000/svg"><path d="M6.73 23.318a1.63 1.63 0 0 1-1.675-.107 1.543 1.543 0 0 1-.541-.663 1.486 1.486 0 0 1-.096-.84l1.147-6.417-4.857-4.547c-.21-.2-.359-.453-.429-.73a1.485 1.485 0 0 1 .034-.84c.092-.27.26-.512.486-.696.225-.184.5-.303.792-.344l6.714-.937 3-5.843c.133-.257.337-.473.59-.623a1.64 1.64 0 0 1 1.68 0c.252.15.456.366.589.623l3 5.843 6.714.937c.292.041.566.16.792.344.226.184.394.425.486.696.092.272.103.562.033.84-.07.277-.218.53-.428.73l-4.86 4.544 1.147 6.417c.05.284.018.575-.094.84-.113.267-.3.497-.541.665a1.632 1.632 0 0 1-1.677.107l-6.004-3.026-6.001 3.027Z" fill="#E8EAF4"/></svg><svg fill="none" viewBox="0 0 12 11" id="review--raiting" xmlns="http://www.w3.org/2000/svg"><path d="M3.118 10.913a.786.786 0 0 1-.804-.051.739.739 0 0 1-.26-.318.709.709 0 0 1-.046-.401l.55-3.07L.229 4.9a.708.708 0 0 1-.19-.75.733.733 0 0 1 .233-.333.775.775 0 0 1 .38-.165l3.223-.448L5.314.408A.75.75 0 0 1 5.597.11a.79.79 0 0 1 .806 0 .75.75 0 0 1 .283.298l1.44 2.795 3.223.448c.14.02.272.077.38.165.109.088.19.203.233.333a.708.708 0 0 1-.19.75L9.44 7.073l.55 3.069a.708.708 0 0 1-.045.402.738.738 0 0 1-.26.317.78.78 0 0 1-.804.052L5.999 9.465l-2.88 1.448Z" fill="#E8EAF4"/></svg><svg fill="none" viewBox="0 0 25 24" id="review--star-full" xmlns="http://www.w3.org/2000/svg"><path d="m5.805 21.948-.015.008a.097.097 0 0 1-.05.01.089.089 0 0 1-.041-.013L6.84 15.56a1.534 1.534 0 0 0-.462-1.39L1.556 9.656a.098.098 0 0 1 .014-.003s0 0 0 0l6.713-.936a1.534 1.534 0 0 0 1.153-.82l2.997-5.838s.004-.005.014-.011a.106.106 0 0 1 .053-.014c.022 0 .041.006.053.014l.782-1.309-.782 1.309c.01.006.014.01.014.011l2.997 5.839c.228.444.658.75 1.153.819l6.712.936s0 0 0 0c.006 0 .01.002.015.003l-4.825 4.512c-.38.355-.554.878-.463 1.39l1.143 6.395a.088.088 0 0 1-.041.013l.098 1.53-.098-1.53a.097.097 0 0 1-.05-.01l-.016-.008-6.004-3.027a1.534 1.534 0 0 0-1.381 0l-6.002 3.027ZM1.501 9.647l-.014.004.014-.004Z" fill="#FFCA43" stroke="#FFCA43" stroke-width="3.068" stroke-linecap="round" stroke-linejoin="round"/></svg></svg>