<?xml version="1.0" encoding="utf-8"?><svg viewBox="0 0 363 24" xmlns="http://www.w3.org/2000/svg" xmlns:xlink="http://www.w3.org/1999/xlink"><style>:root>svg{display:none}:root>svg:target{display:block}</style><svg fill="none" viewBox="0 0 18 18" id="footer--BELARUS1" xmlns="http://www.w3.org/2000/svg"><g clip-path="url(#aa)"><mask id="ab" style="mask-type:luminance" maskUnits="userSpaceOnUse" x="-1" y="0" width="31" height="18"><path d="M29.852 0H-1v18h30.852V0Z" fill="#fff"/></mask><g mask="url(#ab)"><path d="M29.852 0H-1v11.997h30.852V0Z" fill="#BA0019"/><path d="M29.852 11.997H-1V18h30.852v-6.003Z" fill="#3E9A13"/><path d="M2.962 0H-1v18h3.962V0Z" fill="#fff"/><path d="M-.523 17.669h.174v-.496h-.174v.496Zm1.415 0h.175v-.496H.892v.496Zm1.407 0h.184v-.496h-.184v.496ZM.184 16.336H.36v-.414H.184v.414Zm1.416 0h.156v-.414H1.6v.414Zm-2.123-1.075h.174v-.497h-.174v.497Zm1.415 0h.175v-.497H.892v.497Zm1.407 0h.184v-.497h-.184v.497Zm-2.464.661H.01v-.413h.174v-.414H.36v.414h.175v.413h.184v.414H.534v.423H.359v.414H.184v-.414H.01v-.423h-.175v-.414Zm1.407 0h.183v-.413H1.6v-.414h.156v.414h.175v.413h.193v.414H1.95v.423h-.193v.414H1.6v-.414h-.175v-.423h-.183v-.414Zm.358-1.654v.44h-.184v.415h-.174v.413h-.175v.414H.892v-.414H.718v-.413H.534v-.414H.359v-.414H.184v.414H.01v.414h-.175v.413h-.184v.414h-.174v.414h.174v.422h.184v.414H.01v.414h.174v.414H.36v-.414h.175V17.2h.184v-.413h.174v-.423h.175v.422h.175v.414h.183v.414H1.6v.414h.156v-.414h.175V17.2h.193v-.413H2.3v-.423h.184v-.414h-.184v-.414h-.175v-.413H1.95v-.414h-.193v-.414l-.156-.027Zm.432-.414h.092v-.165h.092v.165H2.3v.165h-.083v.166h-.092v-.166h-.092v-.165Zm0-.58v.249H1.95v.267h-.091v.33h.091v.249h.083v.248H2.3v-.248h.092v-.248h.083v-.331H2.39v-.249h-.092v-.248l-.267-.018Zm-2.38.58h.091v-.165h.092v.165h.083v.165h-.083v.166h-.092v-.166h-.092v-.165Zm0-.58v.249h-.084v.267h-.091v.33h.091v.249h.083v.248h.267v-.248H.01v-.248h.082v-.331H.01v-.249h-.092v-.248l-.267-.018Zm.974.58h.092v-.165h.12v.165h.091v.165H.837v.166h-.12v-.166H.627v-.165Zm.441 0h.092v-.165h.083v.165h.092v.165h-.092v.166h-.083v-.166h-.092v-.165Zm0-.58v.249H.892v-.248H.626v.248H.534v.267H.45v.33h.083v.249h.092v.248h.266v-.248h.175v.248h.267v-.248h.091v-.248h.083v-.331h-.083v-.249h-.091v-.248l-.267-.018Zm-1.59-.174h.174v-.496h-.174v.496Zm1.415 0h.175v-.496H.892v.496Zm1.407 0h.184v-.496h-.184v.496Zm-2.822-2.068h.174V10.7h-.174v.33Zm2.822 0h.184V10.7h-.184v.33ZM.892 9.873h.175V9.46H.892v.413ZM-.523 8.752v.496h.174v-.496h-.174Zm.974 0v.496h.175v-.496H.45Zm.92 0v.496h.174v-.496H1.37Zm.919 0v.496h.183v-.496H2.29Zm-1.131-.294v.165h-.092v.129H.892v-.129H.837v-.165H.626v.248h.092v.129h.12v.358h-.12v.129H.626v.248h.211v-.193H.93v-.129h.175v.129h.092v.165h.174v-.248h-.092v-.101h-.12v-.358h.084v-.13h.092v-.247h-.175Zm-.267.082h.175v-.413H.892v.413ZM-.523 7.3h.174v-.332h-.174V7.3Zm2.822 0h.184v-.332h-.184V7.3ZM-.523 5.395h.174v-.505h-.174v.505Zm1.415 0h.175v-.505H.892v.505Zm1.407 0h.184v-.505h-.184v.505ZM.184 9.01v-.174H.36V8.55h.175v-.34h.303v-.387H.93V7.63h.175v.184h.092v.395h.266v.34h.175v.286h.12v.358H1.6v.294h-.175v.331H1.16v.386h-.092v.193H.892v-.193H.837v-.386H.534v-.33H.359v-.295H.184V9.01ZM1.6 4.413v.413h-.184v.414h-.174v.423h-.175v.414H.892v-.432H.718v-.423H.534v-.414H.359v-.414H.184v.414H.01v.414h-.175v.423h-.184v.413h-.174v.377h.174v.414h.184v.414H.01v.413h.174V7.3H.36v-.413h.175v-.45H.359v-.46h.175v.33h.184v.662h.12v.386H.533v.331H.359v.249H.184v.413H.01v-.386h-.175v-.248h-.184v-.248h-.174v.744h.174v.34h.184v.286H.01v.358h-.175v.294h-.184v.331h-.174v.745h.174v-.248h.184v-.249H.01v-.413h.174v.413H.36v.249h.175v.33h.303v.387h-.12v.662H.535v.34H.359v-.506h.175v-.414H.359v-.413H.184v-.414H.01v.414h-.175v.413h-.184v.414h-.174v.423h.174v.414h.184v.413H.01v.423h.174v.414H.36V13.2h.175v-.423h.184v-.413h.174v-.414h.175v.414h.175v.413h.183v.423H1.6v.414h.156V13.2h.175v-.423h.193v-.413H2.3v-.414h.184v-.414h-.184v-.413h-.175v-.414H1.95v-.414h-.193v.414H1.6v.414h-.184v.413H1.6v.506h-.184v-.34h-.174v-.671h-.083v-.414h.266v-.331H1.6v-.248h.156v-.414h.175v.414h.193v.248H2.3v.248h.184v-.744h-.184V9.46h-.175v-.267H1.95v-.358h.175V8.55H2.3v-.34h.184v-.745h-.184v.248h-.175v.248H1.95v.414h-.193V7.96H1.6v-.248h-.175v-.359H1.16v-.386h.083v-.662h.174v-.33H1.6v.46h-.184v.413H1.6v.414h.156v.413h.175V7.3h.193v-.413H2.3v-.45h.184v-.378h-.184v-.413h-.175v-.423H1.95v-.414h-.193v-.414l-.156.019ZM-.349 3.98h.092v-.166h.092v.166h.083v.165h-.083v.175h-.092v-.175h-.092v-.165Zm0-.304h-.083v.248h-.091v.304h.091v.257h.083v.24h.267v-.24H.01V4.23h.082v-.331H.01v-.22h-.092V3.4H-.35v.276Zm.975.331h.092v-.193h.12v.166h.091v.165H.837v.175h-.12v-.175H.627v-.138Zm.441 0h.092v-.193h.083v.166h.092v.165h-.092v.175h-.083v-.175h-.092v-.138Zm-.441-.33H.534v.247H.45v.304h.083v.257h.092v.24h.266v-.24h.175v.24h.267v-.24h.091V4.23h.083v-.331h-.083v-.22h-.091V3.4h-.267v.276H.892v-.276H.626v.276Zm1.406.33h.092v-.193h.092v.166H2.3v.165h-.083v.166h-.092v-.166h-.092v-.138Zm0-.579v.248H1.95v.248h-.091v.304h.091v.248h.083v.248H2.3v-.248h.092v-.248h.083v-.331H2.39v-.22h-.092V3.4l-.267.028Zm-2.555-.193h.174v-.478h-.174v.478Zm1.415 0h.175v-.478H.892v.478Zm1.407 0h.184v-.478h-.184v.478ZM.184 2.078H.36v-.423H.184v.423Zm1.416 0h.156v-.423H1.6v.423ZM-.523.828h.174V.33h-.174v.496Zm1.415 0h.175V.33H.892v.496Zm1.407 0h.184V.33h-.184v.496Zm-2.464.827H.01V1.25h.174V.827H.36v.423h.175v.405h.184v.423H.534v.413H.359v.414H.184v-.414H.01v-.413h-.175v-.423Zm1.407 0h.183V1.25H1.6V.827h.156v.423h.175v.405h.193v.423H1.95v.413h-.193v.414H1.6v-.414h-.175v-.413h-.183v-.423ZM1.6 0v.414h-.175v.413h-.183v.423h-.175v.405H.892V1.25H.718V.827H.534V.414H.359V0H.184v.414H.01v.413h-.175v.423h-.184v.405h-.174v.423h.174v.413h.184v.414H.01v.414h.174v.413H.36V3.32h.175v-.414h.184v-.414h.174v-.413h.175v.413h.175v.414h.174v.414H1.6v.413h.156V3.32h.175v-.414h.193v-.414H2.3v-.413h.184v-.423h-.184V1.25h-.175V.827H1.95V.414h-.193V0H1.6Z" fill="#BA0019"/></g></g><defs><clipPath id="aa"><path fill="#fff" transform="translate(-1)" d="M0 0h30.852v18H0z"/></clipPath></defs></svg><svg fill="none" viewBox="0 0 363 14" id="footer--Vector2511" xmlns="http://www.w3.org/2000/svg"><path d="M1 5.098 362 1 21.819 13H333.27" stroke="#4039FF" stroke-width="2" stroke-linecap="round"/></svg><svg fill="none" viewBox="0 0 18 18" id="footer--lang" xmlns="http://www.w3.org/2000/svg"><g clip-path="url(#ca)" stroke="#191C1F" stroke-linecap="round" stroke-linejoin="round"><path d="m14.313 14.013-1.594-3.187-1.594 3.187M11.406 13.451h2.625"/><path d="M12.717 16.5a3.788 3.788 0 1 1 0-7.575 3.788 3.788 0 0 1 0 7.575ZM3.828 1.575h2.925a2.25 2.25 0 0 1 2.25 2.25V6.75A2.25 2.25 0 0 1 6.753 9H3.828a2.25 2.25 0 0 1-2.25-2.25V3.825a2.25 2.25 0 0 1 2.25-2.25ZM6.81 4.444H3.774M5.29 3.938v.506"/><path d="M6.051 4.444c0 1.305-1.02 2.362-2.278 2.362"/><path d="M6.81 6.807c-.546 0-1.034-.291-1.38-.75M10.93 3.687h1.1a2.748 2.748 0 0 1 2.747 2.748M10.93 3.687l.824.824M11.754 2.862l-.824.824M7.082 14.313h-1.1a2.748 2.748 0 0 1-2.748-2.748M7.082 14.313l-.824-.824M6.258 15.138l.824-.824"/></g><defs><clipPath id="ca"><path fill="#fff" d="M0 0h18v18H0z"/></clipPath></defs></svg><svg fill="none" viewBox="0 0 26 24" id="review--Star-empty" xmlns="http://www.w3.org/2000/svg"><path d="M6.73 23.318a1.63 1.63 0 0 1-1.675-.107 1.543 1.543 0 0 1-.541-.663 1.486 1.486 0 0 1-.096-.84l1.147-6.417-4.857-4.547c-.21-.2-.359-.453-.429-.73a1.485 1.485 0 0 1 .034-.84c.092-.27.26-.512.486-.696.225-.184.5-.303.792-.344l6.714-.937 3-5.843c.133-.257.337-.473.59-.623a1.64 1.64 0 0 1 1.68 0c.252.15.456.366.589.623l3 5.843 6.714.937c.292.041.566.16.792.344.226.184.394.425.486.696.092.272.103.562.033.84-.07.277-.218.53-.428.73l-4.86 4.544 1.147 6.417c.05.284.018.575-.094.84-.113.267-.3.497-.541.665a1.632 1.632 0 0 1-1.677.107l-6.004-3.026-6.001 3.027Z" fill="#E8EAF4"/></svg><svg fill="none" viewBox="0 0 12 11" id="review--raiting" xmlns="http://www.w3.org/2000/svg"><path d="M3.118 10.913a.786.786 0 0 1-.804-.051.739.739 0 0 1-.26-.318.709.709 0 0 1-.046-.401l.55-3.07L.229 4.9a.708.708 0 0 1-.19-.75.733.733 0 0 1 .233-.333.775.775 0 0 1 .38-.165l3.223-.448L5.314.408A.75.75 0 0 1 5.597.11a.79.79 0 0 1 .806 0 .75.75 0 0 1 .283.298l1.44 2.795 3.223.448c.14.02.272.077.38.165.109.088.19.203.233.333a.708.708 0 0 1-.19.75L9.44 7.073l.55 3.069a.708.708 0 0 1-.045.402.738.738 0 0 1-.26.317.78.78 0 0 1-.804.052L5.999 9.465l-2.88 1.448Z" fill="#E8EAF4"/></svg><svg fill="none" viewBox="0 0 25 24" id="review--star-full" xmlns="http://www.w3.org/2000/svg"><path d="m5.805 21.948-.015.008a.097.097 0 0 1-.05.01.089.089 0 0 1-.041-.013L6.84 15.56a1.534 1.534 0 0 0-.462-1.39L1.556 9.656a.098.098 0 0 1 .014-.003s0 0 0 0l6.713-.936a1.534 1.534 0 0 0 1.153-.82l2.997-5.838s.004-.005.014-.011a.106.106 0 0 1 .053-.014c.022 0 .041.006.053.014l.782-1.309-.782 1.309c.01.006.014.01.014.011l2.997 5.839c.228.444.658.75 1.153.819l6.712.936s0 0 0 0c.006 0 .01.002.015.003l-4.825 4.512c-.38.355-.554.878-.463 1.39l1.143 6.395a.088.088 0 0 1-.041.013l.098 1.53-.098-1.53a.097.097 0 0 1-.05-.01l-.016-.008-6.004-3.027a1.534 1.534 0 0 0-1.381 0l-6.002 3.027ZM1.501 9.647l-.014.004.014-.004Z" fill="#FFCA43" stroke="#FFCA43" stroke-width="3.068" stroke-linecap="round" stroke-linejoin="round"/></svg></svg>