<svg width="18" height="18" viewBox="0 0 18 18" fill="none" xmlns="http://www.w3.org/2000/svg">
<g clip-path="url(#clip0_10599_22067)">
<mask id="mask0_10599_22067" style="mask-type:luminance" maskUnits="userSpaceOnUse" x="-1" y="0" width="31" height="18">
<path d="M29.8519 0H-1V18H29.8519V0Z" fill="white"/>
</mask>
<g mask="url(#mask0_10599_22067)">
<path d="M29.8519 0H-1V11.9969H29.8519V0Z" fill="#BA0019"/>
<path d="M29.8519 11.9971H-1V18.0001H29.8519V11.9971Z" fill="#3E9A13"/>
<path d="M2.96221 0H-1V18H2.96221V0Z" fill="white"/>
<path d="M-0.523438 17.669H-0.348769V17.1726H-0.523438V17.669ZM0.892293 17.669H1.06696V17.1726H0.892293V17.669ZM2.29883 17.669H2.48269V17.1726H2.29883V17.669ZM0.184428 16.3361H0.359096V15.9224H0.184428V16.3361ZM1.60016 16.3361H1.75644V15.9224H1.60016V16.3361ZM-0.523438 15.2605H-0.348769V14.764H-0.523438V15.2605ZM0.892293 15.2605H1.06696V14.764H0.892293V15.2605ZM2.29883 15.2605H2.48269V14.764H2.29883V15.2605ZM-0.164908 15.9224H0.00975972V15.5087H0.184428V15.095H0.359096V15.5087H0.533764V15.9224H0.717625V16.3361H0.533764V16.7589H0.359096V17.1726H0.184428V16.7589H0.00975972V16.3361H-0.164908V15.9224ZM1.24163 15.9224H1.42549V15.5087H1.60016V15.095H1.75644V15.5087H1.93111V15.9224H2.12416V16.3361H1.94949V16.7589H1.75644V17.1726H1.60016V16.7589H1.42549V16.3361H1.24163V15.9224ZM1.60016 14.2676V14.7089H1.4163V15.1226H1.24163V15.5363H1.06696V15.9499H0.892293V15.5363H0.717625V15.1226H0.533764V14.7089H0.359096V14.2952H0.184428V14.7089H0.00975972V15.1226H-0.164908V15.5363H-0.348769V15.9499H-0.523438V16.3636H-0.348769V16.7865H-0.164908V17.2002H0.00975972V17.6139H0.184428V18.0276H0.359096V17.6139H0.533764V17.2002H0.717625V16.7865H0.892293V16.3636H1.06696V16.7865H1.24163V17.2002H1.42549V17.6139H1.60016V18.0276H1.75644V17.6139H1.93111V17.2002H2.12416V16.7865H2.29883V16.3636H2.48269V15.9499H2.29883V15.5363H2.12416V15.1226H1.94949V14.7089H1.75644V14.2952L1.60016 14.2676ZM2.03223 13.8539H2.12416V13.6885H2.21609V13.8539H2.29883V14.0194H2.21609V14.1849H2.12416V14.0194H2.03223V13.8539ZM2.03223 13.2748V13.523H1.94949V13.7896H1.85756V14.1205H1.94949V14.3687H2.03223V14.617H2.29883V14.3687H2.39076V14.1205H2.4735V13.7896H2.39076V13.5414H2.29883V13.2932L2.03223 13.2748ZM-0.348769 13.8539H-0.256839V13.6885H-0.164908V13.8539H-0.0821709V14.0194H-0.164908V14.1849H-0.256839V14.0194H-0.348769V13.8539ZM-0.348769 13.2748V13.523H-0.431507V13.7896H-0.523438V14.1205H-0.431507V14.3687H-0.348769V14.617H-0.0821709V14.3687H0.00975972V14.1205H0.0924972V13.7896H0.00975972V13.5414H-0.0821709V13.2932L-0.348769 13.2748ZM0.625694 13.8539H0.717625V13.6885H0.837135V13.8539H0.929065V14.0194H0.837135V14.1849H0.717625V14.0194H0.625694V13.8539ZM1.06696 13.8539H1.15889V13.6885H1.24163V13.8539H1.33356V14.0194H1.24163V14.1849H1.15889V14.0194H1.06696V13.8539ZM1.06696 13.2748V13.523H0.892293V13.2748H0.625694V13.523H0.533764V13.7896H0.451026V14.1205H0.533764V14.3687H0.625694V14.617H0.892293V14.3687H1.06696V14.617H1.33356V14.3687H1.42549V14.1205H1.50823V13.7896H1.42549V13.5414H1.33356V13.2932L1.06696 13.2748ZM-0.523438 13.1001H-0.348769V12.6037H-0.523438V13.1001ZM0.892293 13.1001H1.06696V12.6037H0.892293V13.1001ZM2.29883 13.1001H2.48269V12.6037H2.29883V13.1001ZM-0.523438 11.0317H-0.348769V10.7007H-0.523438V11.0317ZM2.29883 11.0317H2.48269V10.7007H2.29883V11.0317ZM0.892293 9.87334H1.06696V9.45965H0.892293V9.87334ZM-0.523438 8.75179V9V9.24821H-0.348769V9V8.75179H-0.523438ZM0.451026 8.75179V9V9.24821H0.625694V9V8.75179H0.451026ZM1.37033 8.75179V9V9.24821H1.545V9V8.75179H1.37033ZM2.28964 8.75179V9V9.24821H2.4735V9V8.75179H2.28964ZM1.15889 8.45761V8.62308H1.06696V8.75179H0.892293V8.62308H0.837135V8.45761H0.625694V8.70582H0.717625V8.83452H0.837135V9V9.19305H0.717625V9.32176H0.625694V9.56997H0.837135V9.37691H0.929065V9.24821H1.10373V9.37691H1.19566V9.54239H1.37033V9.29418H1.2784V9.19305H1.15889V9V8.83452H1.24163V8.70582H1.33356V8.45761H1.15889ZM0.892293 8.54035H1.06696V8.12666H0.892293V8.54035ZM-0.523438 7.29928H-0.348769V6.96833H-0.523438V7.29928ZM2.29883 7.29928H2.48269V6.96833H2.29883V7.29928ZM-0.523438 5.39632H-0.348769V4.8907H-0.523438V5.39632ZM0.892293 5.39632H1.06696V4.8907H0.892293V5.39632ZM2.29883 5.39632H2.48269V4.8907H2.29883V5.39632ZM0.184428 9.00919V8.83452H0.359096V8.54954H0.533764V8.2094H0.837135V7.82329H0.929065V7.63023H1.10373V7.8141H1.19566V8.2094H1.46226V8.54954H1.63693V8.83452H1.75644V9.19305H1.60016V9.48723H1.42549V9.81818H1.15889V10.2043H1.06696V10.3973H0.892293V10.2043H0.837135V9.81818H0.533764V9.48723H0.359096V9.19305H0.184428V9.00919ZM1.60016 4.41267V4.82635H1.4163V5.24004H1.24163V5.66292H1.06696V6.07661H0.892293V5.64453H0.717625V5.22165H0.533764V4.80797H0.359096V4.39428H0.184428V4.80797H0.00975972V5.22165H-0.164908V5.64453H-0.348769V6.05822H-0.523438V6.43514H-0.348769V6.84882H-0.164908V7.26251H0.00975972V7.6762H0.184428V7.29928H0.359096V6.8856H0.533764V6.43514H0.359096V5.97548H0.533764V6.30643H0.717625V6.96833H0.837135V7.35444H0.533764V7.68539H0.359096V7.93361H0.184428V8.34729H0.00975972V7.96118H-0.164908V7.71297H-0.348769V7.46476H-0.523438V8.2094H-0.348769V8.54954H-0.164908V8.83452H0.00975972V9V9.19305H-0.164908V9.48723H-0.348769V9.81818H-0.523438V10.5628H-0.348769V10.3146H-0.164908V10.0664H0.00975972V9.65271H0.184428V10.0664H0.359096V10.3146H0.533764V10.6456H0.837135V11.0317H0.717625V11.6936H0.533764V12.0337H0.359096V11.5281H0.533764V11.1144H0.359096V10.7007H0.184428V10.287H0.00975972V10.7007H-0.164908V11.1144H-0.348769V11.5281H-0.523438V11.951H-0.348769V12.3647H-0.164908V12.7783H0.00975972V13.2012H0.184428V13.6149H0.359096V13.2012H0.533764V12.7783H0.717625V12.3647H0.892293V11.951H1.06696V12.3647H1.24163V12.7783H1.42549V13.2012H1.60016V13.6149H1.75644V13.2012H1.93111V12.7783H2.12416V12.3647H2.29883V11.951H2.48269V11.5373H2.29883V11.1236H2.12416V10.7099H1.94949V10.2962H1.75644V10.7099H1.60016V11.1236H1.4163V11.5373H1.60016V12.0429H1.4163V11.7028H1.24163V11.0317H1.15889V10.618H1.42549V10.287H1.60016V10.0388H1.75644V9.62513H1.93111V10.0388H2.12416V10.287H2.29883V10.5352H2.48269V9.7906H2.29883V9.45965H2.12416V9.19305H1.94949V9V8.83452H2.12416V8.54954H2.29883V8.2094H2.48269V7.46476H2.29883V7.71297H2.12416V7.96118H1.94949V8.37487H1.75644V7.96118H1.60016V7.71297H1.42549V7.35444H1.15889V6.96833H1.24163V6.30643H1.4163V5.97548H1.60016V6.43514H1.4163V6.84882H1.60016V7.26251H1.75644V7.6762H1.93111V7.29928H2.12416V6.8856H2.29883V6.43514H2.48269V6.05822H2.29883V5.64453H2.12416V5.22165H1.94949V4.80797H1.75644V4.39428L1.60016 4.41267ZM-0.348769 3.98059H-0.256839V3.81512H-0.164908V3.98059H-0.0821709V4.14607H-0.164908V4.32073H-0.256839V4.14607H-0.348769V3.98059ZM-0.348769 3.67722H-0.431507V3.92543H-0.523438V4.2288H-0.431507V4.48621H-0.348769V4.72523H-0.0821709V4.48621H0.00975972V4.2288H0.0924972V3.89785H0.00975972V3.67722H-0.0821709V3.40143H-0.348769V3.67722ZM0.625694 4.00817H0.717625V3.81512H0.837135V3.98059H0.929065V4.14607H0.837135V4.32073H0.717625V4.14607H0.625694V4.00817ZM1.06696 4.00817H1.15889V3.81512H1.24163V3.98059H1.33356V4.14607H1.24163V4.32073H1.15889V4.14607H1.06696V4.00817ZM0.625694 3.67722H0.533764V3.92543H0.451026V4.2288H0.533764V4.48621H0.625694V4.72523H0.892293V4.48621H1.06696V4.72523H1.33356V4.48621H1.42549V4.2288H1.50823V3.89785H1.42549V3.67722H1.33356V3.40143H1.06696V3.67722H0.892293V3.40143H0.625694V3.67722ZM2.03223 4.00817H2.12416V3.81512H2.21609V3.98059H2.29883V4.14607H2.21609V4.31154H2.12416V4.14607H2.03223V4.00817ZM2.03223 3.42901V3.67722H1.94949V3.92543H1.85756V4.2288H1.94949V4.47702H2.03223V4.72523H2.29883V4.47702H2.39076V4.2288H2.4735V3.89785H2.39076V3.67722H2.29883V3.40143L2.03223 3.42901ZM-0.523438 3.23595H-0.348769V2.75792H-0.523438V3.23595ZM0.892293 3.23595H1.06696V2.75792H0.892293V3.23595ZM2.29883 3.23595H2.48269V2.75792H2.29883V3.23595ZM0.184428 2.07763H0.359096V1.65475H0.184428V2.07763ZM1.60016 2.07763H1.75644V1.65475H1.60016V2.07763ZM-0.523438 0.827375H-0.348769V0.33095H-0.523438V0.827375ZM0.892293 0.827375H1.06696V0.33095H0.892293V0.827375ZM2.29883 0.827375H2.48269V0.33095H2.29883V0.827375ZM-0.164908 1.65475H0.00975972V1.25026H0.184428V0.827375H0.359096V1.25026H0.533764V1.65475H0.717625V2.07763H0.533764V2.49132H0.359096V2.905H0.184428V2.49132H0.00975972V2.07763H-0.164908V1.65475ZM1.24163 1.65475H1.42549V1.25026H1.60016V0.827375H1.75644V1.25026H1.93111V1.65475H2.12416V2.07763H1.94949V2.49132H1.75644V2.905H1.60016V2.49132H1.42549V2.07763H1.24163V1.65475ZM1.60016 0V0.413687H1.42549V0.827375H1.24163V1.25026H1.06696V1.65475H0.892293V1.25026H0.717625V0.827375H0.533764V0.413687H0.359096V0H0.184428V0.413687H0.00975972V0.827375H-0.164908V1.25026H-0.348769V1.65475H-0.523438V2.07763H-0.348769V2.49132H-0.164908V2.905H0.00975972V3.31869H0.184428V3.73238H0.359096V3.31869H0.533764V2.905H0.717625V2.49132H0.892293V2.07763H1.06696V2.49132H1.24163V2.905H1.4163V3.31869H1.60016V3.73238H1.75644V3.31869H1.93111V2.905H2.12416V2.49132H2.29883V2.07763H2.48269V1.65475H2.29883V1.25026H2.12416V0.827375H1.94949V0.413687H1.75644V0H1.60016Z" fill="#BA0019"/>
</g>
</g>
<defs>
<clipPath id="clip0_10599_22067">
<rect width="30.8519" height="18" fill="white" transform="translate(-1)"/>
</clipPath>
</defs>
</svg>
