<svg width="12" height="11" viewBox="0 0 12 11" fill="none" xmlns="http://www.w3.org/2000/svg">
<path d="M3.11815 10.9128C2.99255 10.9777 2.85056 11.0073 2.70834 10.9983C2.56613 10.9893 2.4294 10.9419 2.31374 10.8617C2.19807 10.7815 2.10812 10.6715 2.05411 10.5445C2.00011 10.4174 1.98423 10.2783 2.00829 10.1429L2.55878 7.07384L0.227426 4.89927C0.126412 4.80357 0.0551319 4.6826 0.0216101 4.54998C-0.0119116 4.41736 -0.00634418 4.27836 0.0376857 4.14863C0.0817156 4.0189 0.16246 3.90358 0.270829 3.81566C0.379198 3.72774 0.510889 3.67071 0.651078 3.65098L3.87413 3.20311L5.31379 0.408371C5.37755 0.285649 5.47552 0.182448 5.59671 0.110324C5.71791 0.0382005 5.85755 0 6 0C6.14245 0 6.28209 0.0382005 6.40329 0.110324C6.52448 0.182448 6.62245 0.285649 6.68621 0.408371L8.12587 3.20311L11.3489 3.65098C11.4891 3.67071 11.6208 3.72774 11.7292 3.81566C11.8375 3.90358 11.9183 4.0189 11.9623 4.14863C12.0063 4.27836 12.0119 4.41736 11.9784 4.54998C11.9449 4.6826 11.8736 4.80357 11.7726 4.89927L9.43995 7.07262L9.99045 10.1417C10.0148 10.2771 9.99912 10.4164 9.94524 10.5437C9.89135 10.671 9.80142 10.7811 9.6857 10.8615C9.56998 10.9419 9.43314 10.9893 9.29078 10.9984C9.14842 11.0075 9.00628 10.9778 8.88058 10.9128L5.99873 9.46532L3.11815 10.9128Z" fill="#E8EAF4"/>
</svg>
