<svg width="25" height="24" viewBox="0 0 25 24" fill="none" xmlns="http://www.w3.org/2000/svg">
<path d="M5.80535 21.9479L5.78986 21.9558C5.77769 21.9621 5.76004 21.9667 5.73999 21.9654C5.72134 21.9642 5.70714 21.9584 5.69854 21.9529L6.84095 15.5607C6.93238 15.0491 6.7586 14.526 6.37921 14.1708L1.55646 9.65604C1.56063 9.65479 1.56526 9.65372 1.57036 9.65297C1.57054 9.65295 1.57072 9.65292 1.57091 9.65289L8.283 8.71681C8.7777 8.64782 9.20784 8.3423 9.43592 7.89793L12.4327 2.05932C12.4332 2.05848 12.4368 2.05352 12.4465 2.04773C12.4589 2.04032 12.4776 2.03409 12.5 2.03409C12.5224 2.03409 12.5411 2.04032 12.5535 2.04773L13.335 0.739334L12.5535 2.04773C12.5633 2.05353 12.5668 2.0585 12.5673 2.05933L15.5641 7.89793C15.7922 8.3423 16.2223 8.64782 16.717 8.71681L23.4291 9.65289C23.4293 9.65292 23.4295 9.65295 23.4297 9.65298C23.4347 9.65372 23.4394 9.65478 23.4435 9.65603L18.6188 14.1677C18.239 14.5228 18.0649 15.0462 18.1564 15.5581L19.2993 21.9532C19.2907 21.9587 19.2765 21.9645 19.2579 21.9657L19.3558 23.4967L19.2579 21.9657C19.2378 21.967 19.2202 21.9624 19.208 21.9561L19.1918 21.9478L13.1879 18.9212C12.7535 18.7023 12.2409 18.7023 11.8066 18.9214L5.80535 21.9479ZM1.50072 9.64697L1.48653 9.65054L1.50072 9.64697Z" fill="#FFCA43" stroke="#FFCA43" stroke-width="3.06818" stroke-linecap="round" stroke-linejoin="round"/>
</svg>
