<svg width="26" height="24" viewBox="0 0 26 24" fill="none" xmlns="http://www.w3.org/2000/svg">
<path d="M6.73053 23.3177C6.46886 23.4534 6.17304 23.5153 5.87676 23.4964C5.58047 23.4775 5.29562 23.3786 5.05466 23.2108C4.81369 23.043 4.62628 22.8132 4.51378 22.5475C4.40127 22.2818 4.36819 21.9909 4.4183 21.7079L5.56517 15.2908L0.708179 10.7439C0.497733 10.5438 0.349233 10.2909 0.279396 10.0136C0.209559 9.7363 0.221158 9.44567 0.312887 9.17441C0.404616 8.90315 0.572833 8.66203 0.798602 8.47819C1.02437 8.29436 1.29873 8.17511 1.59079 8.13387L8.30548 7.19742L11.3048 1.35387C11.4376 1.09727 11.6417 0.881483 11.8942 0.730678C12.1467 0.579874 12.4376 0.5 12.7344 0.5C13.0311 0.5 13.3221 0.579874 13.5746 0.730678C13.827 0.881483 14.0311 1.09727 14.164 1.35387L17.1633 7.19742L23.878 8.13387C24.17 8.17511 24.4444 8.29436 24.6701 8.47819C24.8959 8.66203 25.0641 8.90315 25.1559 9.17441C25.2476 9.44567 25.2592 9.7363 25.1894 10.0136C25.1195 10.2909 24.971 10.5438 24.7606 10.7439L19.9009 15.2882L21.0478 21.7054C21.0985 21.9886 21.0659 22.2798 20.9536 22.5459C20.8414 22.812 20.654 23.0423 20.4129 23.2104C20.1718 23.3785 19.8867 23.4777 19.5902 23.4967C19.2936 23.5156 18.9975 23.4536 18.7356 23.3177L12.7317 20.2911L6.73053 23.3177Z" fill="#E8EAF4"/>
</svg>
