<svg width="24" height="24" viewBox="0 0 24 24" fill="none" xmlns="http://www.w3.org/2000/svg">
<rect width="24" height="24" rx="6" fill="#4039FF" fill-opacity="0.08"/>
<g clip-path="url(#clip0_10568_34981)">
<path d="M10.8482 19.9048C11.609 20.0312 12.3855 20.0317 13.1465 19.9063M10.8482 19.9048C9.21396 19.632 7.7287 18.7883 6.65798 17.5238C5.58727 16.2593 4.99978 14.6559 5 12.999C5.00028 11.6635 5.38253 10.356 6.10165 9.23065C6.82077 8.10534 7.84676 7.20923 9.05854 6.64805C10.2703 6.08687 11.6173 5.88404 12.9406 6.06349C14.2639 6.24295 15.5083 6.7972 16.5268 7.66084C17.5454 8.52449 18.2957 9.66148 18.6892 10.9377C19.0827 12.2139 19.103 13.576 18.7476 14.8633C18.3922 16.1506 17.6761 17.3094 16.6836 18.203C15.6912 19.0966 14.4639 19.6876 13.1465 19.9063M10.8482 19.9048L10.8475 16.117H9.41189C9.29147 16.117 9.17598 16.0692 9.09083 15.984C9.00568 15.8988 8.95784 15.7833 8.95784 15.6629V14.2719C8.95784 14.1515 9.00568 14.036 9.09083 13.9508C9.17598 13.8657 9.29147 13.8178 9.41189 13.8178H10.8475V11.4475C10.8475 10.8454 11.0866 10.2679 11.5124 9.84211C11.9382 9.41633 12.5156 9.17713 13.1177 9.17713H14.4875C14.6882 9.17713 14.8806 9.25686 15.0226 9.39879C15.1645 9.54072 15.2442 9.73321 15.2442 9.93393V10.721C15.2442 10.9217 15.1645 11.1142 15.0226 11.2561C14.8806 11.3981 14.6882 11.4778 14.4875 11.4778H13.9032C13.7025 11.4778 13.5101 11.5575 13.3681 11.6995C13.2262 11.8414 13.1465 12.0339 13.1465 12.2346V13.8178H14.8848C14.9507 13.8178 15.0158 13.8322 15.0756 13.8599C15.1354 13.8876 15.1885 13.9279 15.2311 13.9782C15.2737 14.0285 15.3049 14.0874 15.3224 14.1509C15.34 14.2145 15.3435 14.2811 15.3328 14.3461L15.1436 15.4843C15.1142 15.661 15.0231 15.8216 14.8865 15.9374C14.7498 16.0533 14.5765 16.1169 14.3974 16.117H13.1465V19.9063" stroke="#4039FF" stroke-linecap="round"/>
</g>
<defs>
<clipPath id="clip0_10568_34981">
<rect width="16" height="16" fill="white" transform="translate(4 5)"/>
</clipPath>
</defs>
</svg>
