<?xml version="1.0" encoding="UTF-8" standalone="no"?>
<!DOCTYPE svg PUBLIC "-//W3C//DTD SVG 1.1//EN" "http://www.w3.org/Graphics/SVG/1.1/DTD/svg11.dtd">
<svg xmlns="http://www.w3.org/2000/svg" version="1.1" viewBox="0.00 0.00 106.00 98.00">
<g stroke-width="2.00" fill="none" stroke-linecap="butt">
<path stroke="#87898a" vector-effect="non-scaling-stroke" d="
  M 63.05 14.49
  Q 59.24 6.14 50.66 5.34
  C 41.54 4.49 34.11 11.58 34.45 20.90
  C 34.73 28.73 41.05 34.76 48.71 35.26
  Q 49.32 35.30 49.58 35.85
  Q 54.05 45.37 64.53 44.65
  Q 69.98 44.28 73.44 40.72
  C 82.99 30.88 77.07 16.09 63.74 14.98
  Q 63.25 14.94 63.05 14.49"
/>
<path stroke="#87898a" vector-effect="non-scaling-stroke" d="
  M 69.69 64.23
  C 70.09 54.05 60.92 53.79 53.72 51.90
  C 46.25 49.93 39.26 51.52 32.87 56.28
  Q 32.25 56.74 31.92 56.04
  Q 29.58 51.07 24.74 51.05
  C 21.25 51.03 15.81 50.33 13.04 52.09
  Q 9.38 54.41 9.37 58.78
  Q 9.36 71.16 9.40 82.78
  C 9.42 88.45 13.60 90.73 18.74 90.82
  C 23.39 90.89 28.31 91.31 31.13 87.06
  Q 31.42 86.62 31.94 86.58
  C 38.22 86.01 44.39 88.12 50.44 89.65
  Q 54.02 90.57 58.10 89.83
  Q 64.64 88.65 70.98 87.37
  Q 76.36 86.29 80.53 82.20
  Q 85.35 77.49 89.52 72.94
  C 97.23 64.53 86.30 52.47 76.84 59.26
  Q 73.48 61.67 70.06 64.42
  A 0.23 0.23 0.0 0 1 69.69 64.23"
/>
<path stroke="#87898a" vector-effect="non-scaling-stroke" d="
  M 48.34 28.29
  C 48.72 23.35 51.63 19.18 56.03 16.89
  Q 57.44 16.15 56.34 15.01
  Q 51.34 9.85 45.46 12.59
  C 41.39 14.49 39.76 18.99 41.21 23.16
  Q 42.56 27.07 47.64 28.76
  A 0.54 0.53 -78.6 0 0 48.34 28.29"
/>
<path stroke="#87898a" vector-effect="non-scaling-stroke" d="
  M 71.74 29.92
  A 8.57 8.57 0.0 0 0 63.17 21.35
  A 8.57 8.57 0.0 0 0 54.60 29.92
  A 8.57 8.57 0.0 0 0 63.17 38.49
  A 8.57 8.57 0.0 0 0 71.74 29.92"
/>
<path stroke="#87898a" vector-effect="non-scaling-stroke" d="
  M 26.02 58.39
  A 1.15 1.15 0.0 0 0 24.87 57.24
  L 16.77 57.24
  A 1.15 1.15 0.0 0 0 15.62 58.39
  L 15.62 83.33
  A 1.15 1.15 0.0 0 0 16.77 84.48
  L 24.87 84.48
  A 1.15 1.15 0.0 0 0 26.02 83.33
  L 26.02 58.39"
/>
<path stroke="#87898a" vector-effect="non-scaling-stroke" d="
  M 53.22 67.78
  Q 56.34 67.35 60.25 67.56
  C 61.91 67.65 63.30 66.96 63.52 65.15
  Q 64.02 60.99 60.59 60.09
  C 54.67 58.53 48.24 56.10 42.43 58.25
  Q 37.57 60.05 32.65 64.00
  Q 32.27 64.31 32.27 64.79
  L 32.27 79.71
  Q 32.27 80.22 32.78 80.23
  Q 37.99 80.28 41.26 81.04
  Q 46.60 82.29 51.96 83.61
  Q 54.78 84.31 57.97 83.64
  Q 63.80 82.41 69.35 81.22
  Q 73.45 80.34 77.06 76.80
  Q 81.11 72.83 84.86 69.09
  Q 87.08 66.87 84.97 64.56
  L 84.67 64.23
  Q 82.98 62.39 80.99 63.90
  Q 76.19 67.55 71.34 71.30
  Q 68.09 73.81 64.40 73.92
  Q 59.28 74.08 53.77 73.97
  Q 51.00 73.92 51.00 71.14
  L 51.00 70.32
  Q 51.00 68.08 53.22 67.78"
/>
</g>
<path fill="#f5f5f5" d="
  M 0.00 0.00
  L 106.00 0.00
  L 106.00 98.00
  L 0.00 98.00
  L 0.00 0.00
  Z
  M 63.05 14.49
  Q 59.24 6.14 50.66 5.34
  C 41.54 4.49 34.11 11.58 34.45 20.90
  C 34.73 28.73 41.05 34.76 48.71 35.26
  Q 49.32 35.30 49.58 35.85
  Q 54.05 45.37 64.53 44.65
  Q 69.98 44.28 73.44 40.72
  C 82.99 30.88 77.07 16.09 63.74 14.98
  Q 63.25 14.94 63.05 14.49
  Z
  M 69.69 64.23
  C 70.09 54.05 60.92 53.79 53.72 51.90
  C 46.25 49.93 39.26 51.52 32.87 56.28
  Q 32.25 56.74 31.92 56.04
  Q 29.58 51.07 24.74 51.05
  C 21.25 51.03 15.81 50.33 13.04 52.09
  Q 9.38 54.41 9.37 58.78
  Q 9.36 71.16 9.40 82.78
  C 9.42 88.45 13.60 90.73 18.74 90.82
  C 23.39 90.89 28.31 91.31 31.13 87.06
  Q 31.42 86.62 31.94 86.58
  C 38.22 86.01 44.39 88.12 50.44 89.65
  Q 54.02 90.57 58.10 89.83
  Q 64.64 88.65 70.98 87.37
  Q 76.36 86.29 80.53 82.20
  Q 85.35 77.49 89.52 72.94
  C 97.23 64.53 86.30 52.47 76.84 59.26
  Q 73.48 61.67 70.06 64.42
  A 0.23 0.23 0.0 0 1 69.69 64.23
  Z"
/>
<path fill="#191c1f" d="
  M 63.74 14.98
  C 77.07 16.09 82.99 30.88 73.44 40.72
  Q 69.98 44.28 64.53 44.65
  Q 54.05 45.37 49.58 35.85
  Q 49.32 35.30 48.71 35.26
  C 41.05 34.76 34.73 28.73 34.45 20.90
  C 34.11 11.58 41.54 4.49 50.66 5.34
  Q 59.24 6.14 63.05 14.49
  Q 63.25 14.94 63.74 14.98
  Z
  M 48.34 28.29
  C 48.72 23.35 51.63 19.18 56.03 16.89
  Q 57.44 16.15 56.34 15.01
  Q 51.34 9.85 45.46 12.59
  C 41.39 14.49 39.76 18.99 41.21 23.16
  Q 42.56 27.07 47.64 28.76
  A 0.54 0.53 -78.6 0 0 48.34 28.29
  Z
  M 71.74 29.92
  A 8.57 8.57 0.0 0 0 63.17 21.35
  A 8.57 8.57 0.0 0 0 54.60 29.92
  A 8.57 8.57 0.0 0 0 63.17 38.49
  A 8.57 8.57 0.0 0 0 71.74 29.92
  Z"
/>
<path fill="#f5f5f5" d="
  M 56.03 16.89
  C 51.63 19.18 48.72 23.35 48.34 28.29
  A 0.54 0.53 -78.6 0 1 47.64 28.76
  Q 42.56 27.07 41.21 23.16
  C 39.76 18.99 41.39 14.49 45.46 12.59
  Q 51.34 9.85 56.34 15.01
  Q 57.44 16.15 56.03 16.89
  Z"
/>
<circle fill="#f5f5f5" cx="63.17" cy="29.92" r="8.57"/>
<path fill="#191c1f" d="
  M 69.69 64.23
  A 0.23 0.23 0.0 0 0 70.06 64.42
  Q 73.48 61.67 76.84 59.26
  C 86.30 52.47 97.23 64.53 89.52 72.94
  Q 85.35 77.49 80.53 82.20
  Q 76.36 86.29 70.98 87.37
  Q 64.64 88.65 58.10 89.83
  Q 54.02 90.57 50.44 89.65
  C 44.39 88.12 38.22 86.01 31.94 86.58
  Q 31.42 86.62 31.13 87.06
  C 28.31 91.31 23.39 90.89 18.74 90.82
  C 13.60 90.73 9.42 88.45 9.40 82.78
  Q 9.36 71.16 9.37 58.78
  Q 9.38 54.41 13.04 52.09
  C 15.81 50.33 21.25 51.03 24.74 51.05
  Q 29.58 51.07 31.92 56.04
  Q 32.25 56.74 32.87 56.28
  C 39.26 51.52 46.25 49.93 53.72 51.90
  C 60.92 53.79 70.09 54.05 69.69 64.23
  Z
  M 26.02 58.39
  A 1.15 1.15 0.0 0 0 24.87 57.24
  L 16.77 57.24
  A 1.15 1.15 0.0 0 0 15.62 58.39
  L 15.62 83.33
  A 1.15 1.15 0.0 0 0 16.77 84.48
  L 24.87 84.48
  A 1.15 1.15 0.0 0 0 26.02 83.33
  L 26.02 58.39
  Z
  M 53.22 67.78
  Q 56.34 67.35 60.25 67.56
  C 61.91 67.65 63.30 66.96 63.52 65.15
  Q 64.02 60.99 60.59 60.09
  C 54.67 58.53 48.24 56.10 42.43 58.25
  Q 37.57 60.05 32.65 64.00
  Q 32.27 64.31 32.27 64.79
  L 32.27 79.71
  Q 32.27 80.22 32.78 80.23
  Q 37.99 80.28 41.26 81.04
  Q 46.60 82.29 51.96 83.61
  Q 54.78 84.31 57.97 83.64
  Q 63.80 82.41 69.35 81.22
  Q 73.45 80.34 77.06 76.80
  Q 81.11 72.83 84.86 69.09
  Q 87.08 66.87 84.97 64.56
  L 84.67 64.23
  Q 82.98 62.39 80.99 63.90
  Q 76.19 67.55 71.34 71.30
  Q 68.09 73.81 64.40 73.92
  Q 59.28 74.08 53.77 73.97
  Q 51.00 73.92 51.00 71.14
  L 51.00 70.32
  Q 51.00 68.08 53.22 67.78
  Z"
/>
<rect fill="#f5f5f5" x="15.62" y="57.24" width="10.40" height="27.24" rx="1.15"/>
<path fill="#f5f5f5" d="
  M 53.22 67.78
  Q 51.00 68.08 51.00 70.32
  L 51.00 71.14
  Q 51.00 73.92 53.77 73.97
  Q 59.28 74.08 64.40 73.92
  Q 68.09 73.81 71.34 71.30
  Q 76.19 67.55 80.99 63.90
  Q 82.98 62.39 84.67 64.23
  L 84.97 64.56
  Q 87.08 66.87 84.86 69.09
  Q 81.11 72.83 77.06 76.80
  Q 73.45 80.34 69.35 81.22
  Q 63.80 82.41 57.97 83.64
  Q 54.78 84.31 51.96 83.61
  Q 46.60 82.29 41.26 81.04
  Q 37.99 80.28 32.78 80.23
  Q 32.27 80.22 32.27 79.71
  L 32.27 64.79
  Q 32.27 64.31 32.65 64.00
  Q 37.57 60.05 42.43 58.25
  C 48.24 56.10 54.67 58.53 60.59 60.09
  Q 64.02 60.99 63.52 65.15
  C 63.30 66.96 61.91 67.65 60.25 67.56
  Q 56.34 67.35 53.22 67.78
  Z"
/>
</svg>
