<?xml version="1.0" encoding="UTF-8" standalone="no"?>
<!DOCTYPE svg PUBLIC "-//W3C//DTD SVG 1.1//EN" "http://www.w3.org/Graphics/SVG/1.1/DTD/svg11.dtd">
<svg xmlns="http://www.w3.org/2000/svg" version="1.1" viewBox="0.00 0.00 101.00 97.00">
<g stroke-width="2.00" fill="none" stroke-linecap="butt">
<path stroke="#87898a" vector-effect="non-scaling-stroke" d="
  M 54.74 20.73
  L 54.76 10.34
  Q 54.76 7.61 52.47 6.14
  Q 51.62 5.59 50.74 5.75
  Q 47.25 6.39 47.25 9.93
  L 47.25 20.72
  Q 47.25 21.48 46.81 20.86
  C 45.45 18.94 43.04 16.97 40.66 18.73
  C 37.78 20.86 38.50 23.43 40.75 25.51
  Q 44.82 29.29 48.20 33.02
  A 3.71 3.71 0.0 0 0 53.59 33.14
  L 62.10 24.55
  Q 64.69 21.94 62.04 19.39
  L 61.66 19.02
  Q 59.17 16.63 56.78 19.11
  L 55.08 20.87
  Q 54.74 21.23 54.74 20.73"
/>
<path stroke="#87898a" vector-effect="non-scaling-stroke" d="
  M 84.37 40.98
  A 4.03 3.98 32.8 0 1 84.75 42.68
  L 84.75 76.25
  A 4.50 4.50 0.0 0 1 80.25 80.75
  L 21.75 80.75
  A 4.50 4.50 0.0 0 1 17.25 76.25
  L 17.25 42.75
  A 4.50 4.50 0.0 0 1 21.75 38.25
  L 34.40 38.25
  Q 37.29 38.25 37.97 35.44
  Q 38.10 34.93 38.07 34.41
  Q 37.91 30.72 34.21 30.77
  Q 29.86 30.83 24.84 30.68
  Q 19.71 30.54 16.59 32.00
  C 11.71 34.28 9.62 38.89 9.69 44.17
  Q 9.88 59.69 9.69 74.42
  C 9.57 83.37 14.85 88.34 23.65 88.30
  Q 51.71 88.18 79.29 88.28
  C 84.41 88.30 88.84 85.96 91.15 81.18
  Q 92.45 78.51 92.34 71.82
  Q 92.11 57.47 92.31 43.60
  C 92.42 36.06 87.11 30.89 79.48 30.78
  Q 74.17 30.70 67.87 30.76
  C 62.53 30.81 62.54 38.09 67.56 38.20
  Q 73.41 38.32 79.76 38.22
  C 81.81 38.18 83.48 39.05 84.37 40.98"
/>
<path stroke="#87898a" vector-effect="non-scaling-stroke" d="
  M 31.81 51.07
  A 3.62 3.62 0.0 0 0 28.19 47.45
  L 27.93 47.45
  A 3.62 3.62 0.0 0 0 24.31 51.07
  L 24.31 67.93
  A 3.62 3.62 0.0 0 0 27.93 71.55
  L 28.19 71.55
  A 3.62 3.62 0.0 0 0 31.81 67.93
  L 31.81 51.07"
/>
<path stroke="#87898a" vector-effect="non-scaling-stroke" d="
  M 62.99 59.54
  A 12.00 12.00 0.0 0 0 50.99 47.54
  A 12.00 12.00 0.0 0 0 38.99 59.54
  A 12.00 12.00 0.0 0 0 50.99 71.54
  A 12.00 12.00 0.0 0 0 62.99 59.54"
/>
<path stroke="#87898a" vector-effect="non-scaling-stroke" d="
  M 77.69 51.07
  A 3.62 3.62 0.0 0 0 74.07 47.45
  L 73.81 47.45
  A 3.62 3.62 0.0 0 0 70.19 51.07
  L 70.19 67.93
  A 3.62 3.62 0.0 0 0 73.81 71.55
  L 74.07 71.55
  A 3.62 3.62 0.0 0 0 77.69 67.93
  L 77.69 51.07"
/>
<path stroke="#87898a" vector-effect="non-scaling-stroke" d="
  M 55.52 59.55
  A 4.53 4.53 0.0 0 0 50.99 55.02
  A 4.53 4.53 0.0 0 0 46.46 59.55
  A 4.53 4.53 0.0 0 0 50.99 64.08
  A 4.53 4.53 0.0 0 0 55.52 59.55"
/>
</g>
<path fill="#f5f5f5" d="
  M 0.00 0.00
  L 101.00 0.00
  L 101.00 97.00
  L 0.00 97.00
  L 0.00 0.00
  Z
  M 54.74 20.73
  L 54.76 10.34
  Q 54.76 7.61 52.47 6.14
  Q 51.62 5.59 50.74 5.75
  Q 47.25 6.39 47.25 9.93
  L 47.25 20.72
  Q 47.25 21.48 46.81 20.86
  C 45.45 18.94 43.04 16.97 40.66 18.73
  C 37.78 20.86 38.50 23.43 40.75 25.51
  Q 44.82 29.29 48.20 33.02
  A 3.71 3.71 0.0 0 0 53.59 33.14
  L 62.10 24.55
  Q 64.69 21.94 62.04 19.39
  L 61.66 19.02
  Q 59.17 16.63 56.78 19.11
  L 55.08 20.87
  Q 54.74 21.23 54.74 20.73
  Z
  M 84.37 40.98
  A 4.03 3.98 32.8 0 1 84.75 42.68
  L 84.75 76.25
  A 4.50 4.50 0.0 0 1 80.25 80.75
  L 21.75 80.75
  A 4.50 4.50 0.0 0 1 17.25 76.25
  L 17.25 42.75
  A 4.50 4.50 0.0 0 1 21.75 38.25
  L 34.40 38.25
  Q 37.29 38.25 37.97 35.44
  Q 38.10 34.93 38.07 34.41
  Q 37.91 30.72 34.21 30.77
  Q 29.86 30.83 24.84 30.68
  Q 19.71 30.54 16.59 32.00
  C 11.71 34.28 9.62 38.89 9.69 44.17
  Q 9.88 59.69 9.69 74.42
  C 9.57 83.37 14.85 88.34 23.65 88.30
  Q 51.71 88.18 79.29 88.28
  C 84.41 88.30 88.84 85.96 91.15 81.18
  Q 92.45 78.51 92.34 71.82
  Q 92.11 57.47 92.31 43.60
  C 92.42 36.06 87.11 30.89 79.48 30.78
  Q 74.17 30.70 67.87 30.76
  C 62.53 30.81 62.54 38.09 67.56 38.20
  Q 73.41 38.32 79.76 38.22
  C 81.81 38.18 83.48 39.05 84.37 40.98
  Z
  M 31.81 51.07
  A 3.62 3.62 0.0 0 0 28.19 47.45
  L 27.93 47.45
  A 3.62 3.62 0.0 0 0 24.31 51.07
  L 24.31 67.93
  A 3.62 3.62 0.0 0 0 27.93 71.55
  L 28.19 71.55
  A 3.62 3.62 0.0 0 0 31.81 67.93
  L 31.81 51.07
  Z
  M 62.99 59.54
  A 12.00 12.00 0.0 0 0 50.99 47.54
  A 12.00 12.00 0.0 0 0 38.99 59.54
  A 12.00 12.00 0.0 0 0 50.99 71.54
  A 12.00 12.00 0.0 0 0 62.99 59.54
  Z
  M 77.69 51.07
  A 3.62 3.62 0.0 0 0 74.07 47.45
  L 73.81 47.45
  A 3.62 3.62 0.0 0 0 70.19 51.07
  L 70.19 67.93
  A 3.62 3.62 0.0 0 0 73.81 71.55
  L 74.07 71.55
  A 3.62 3.62 0.0 0 0 77.69 67.93
  L 77.69 51.07
  Z"
/>
<path fill="#191c1f" d="
  M 55.08 20.87
  L 56.78 19.11
  Q 59.17 16.63 61.66 19.02
  L 62.04 19.39
  Q 64.69 21.94 62.10 24.55
  L 53.59 33.14
  A 3.71 3.71 0.0 0 1 48.20 33.02
  Q 44.82 29.29 40.75 25.51
  C 38.50 23.43 37.78 20.86 40.66 18.73
  C 43.04 16.97 45.45 18.94 46.81 20.86
  Q 47.25 21.48 47.25 20.72
  L 47.25 9.93
  Q 47.25 6.39 50.74 5.75
  Q 51.62 5.59 52.47 6.14
  Q 54.76 7.61 54.76 10.34
  L 54.74 20.73
  Q 54.74 21.23 55.08 20.87
  Z"
/>
<path fill="#191c1f" d="
  M 84.37 40.98
  C 83.48 39.05 81.81 38.18 79.76 38.22
  Q 73.41 38.32 67.56 38.20
  C 62.54 38.09 62.53 30.81 67.87 30.76
  Q 74.17 30.70 79.48 30.78
  C 87.11 30.89 92.42 36.06 92.31 43.60
  Q 92.11 57.47 92.34 71.82
  Q 92.45 78.51 91.15 81.18
  C 88.84 85.96 84.41 88.30 79.29 88.28
  Q 51.71 88.18 23.65 88.30
  C 14.85 88.34 9.57 83.37 9.69 74.42
  Q 9.88 59.69 9.69 44.17
  C 9.62 38.89 11.71 34.28 16.59 32.00
  Q 19.71 30.54 24.84 30.68
  Q 29.86 30.83 34.21 30.77
  Q 37.91 30.72 38.07 34.41
  Q 38.10 34.93 37.97 35.44
  Q 37.29 38.25 34.40 38.25
  L 21.75 38.25
  A 4.50 4.50 0.0 0 0 17.25 42.75
  L 17.25 76.25
  A 4.50 4.50 0.0 0 0 21.75 80.75
  L 80.25 80.75
  A 4.50 4.50 0.0 0 0 84.75 76.25
  L 84.75 42.68
  A 4.03 3.98 32.8 0 0 84.37 40.98
  Z"
/>
<rect fill="#191c1f" x="24.31" y="47.45" width="7.50" height="24.10" rx="3.62"/>
<path fill="#191c1f" d="
  M 62.99 59.54
  A 12.00 12.00 0.0 0 1 50.99 71.54
  A 12.00 12.00 0.0 0 1 38.99 59.54
  A 12.00 12.00 0.0 0 1 50.99 47.54
  A 12.00 12.00 0.0 0 1 62.99 59.54
  Z
  M 55.52 59.55
  A 4.53 4.53 0.0 0 0 50.99 55.02
  A 4.53 4.53 0.0 0 0 46.46 59.55
  A 4.53 4.53 0.0 0 0 50.99 64.08
  A 4.53 4.53 0.0 0 0 55.52 59.55
  Z"
/>
<rect fill="#191c1f" x="70.19" y="47.45" width="7.50" height="24.10" rx="3.62"/>
<circle fill="#f5f5f5" cx="50.99" cy="59.55" r="4.53"/>
</svg>
