<?xml version="1.0" encoding="UTF-8" standalone="no"?>
<!DOCTYPE svg PUBLIC "-//W3C//DTD SVG 1.1//EN" "http://www.w3.org/Graphics/SVG/1.1/DTD/svg11.dtd">
<svg xmlns="http://www.w3.org/2000/svg" version="1.1" viewBox="0.00 0.00 108.00 97.00">
<g stroke-width="2.00" fill="none" stroke-linecap="butt">
<path stroke="#87898a" vector-effect="non-scaling-stroke" d="
  M 99.8586 16.2211
  A 8.63 8.63 0.0 0 0 91.2588 7.5610
  L 56.3590 7.4392
  A 8.63 8.63 0.0 0 0 47.6989 16.0390
  L 47.6214 38.2389
  A 8.63 8.63 0.0 0 0 56.2212 46.8990
  L 91.1210 47.0208
  A 8.63 8.63 0.0 0 0 99.7811 38.4210
  L 99.8586 16.2211"
/>
<path stroke="#87898a" vector-effect="non-scaling-stroke" d="
  M 25.69 19.88
  C 19.42 19.16 14.33 20.58 11.40 26.33
  Q 10.05 28.99 10.17 33.62
  Q 10.31 39.04 10.18 44.06
  A 2.60 2.58 21.8 0 0 11.04 46.05
  Q 12.19 47.08 13.39 46.99
  Q 16.28 46.77 16.40 43.87
  Q 16.61 38.77 16.43 32.22
  C 16.26 26.32 21.33 25.74 25.75 26.03
  Q 26.56 26.08 25.98 26.65
  L 23.47 29.13
  Q 21.71 30.88 23.17 32.87
  Q 23.59 33.44 24.13 33.88
  Q 26.04 35.43 27.80 33.71
  L 36.48 25.24
  A 3.11 3.11 0.0 0 0 36.49 20.79
  L 27.73 12.19
  Q 25.80 10.30 23.91 12.22
  L 23.38 12.77
  Q 21.41 14.76 23.39 16.75
  L 25.95 19.33
  Q 26.60 19.98 25.69 19.88"
/>
<path stroke="#87898a" vector-effect="non-scaling-stroke" d="
  M 62.34 62.13
  A 8.86 8.86 0.0 0 0 53.48 53.27
  L 19.02 53.27
  A 8.86 8.86 0.0 0 0 10.16 62.13
  L 10.16 83.85
  A 8.86 8.86 0.0 0 0 19.02 92.71
  L 53.48 92.71
  A 8.86 8.86 0.0 0 0 62.34 83.85
  L 62.34 62.13"
/>
<path stroke="#87898a" vector-effect="non-scaling-stroke" d="
  M 84.11 80.27
  Q 86.30 80.20 88.66 80.28
  C 93.01 80.44 96.76 77.57 98.58 73.75
  Q 99.94 70.89 99.83 66.74
  Q 99.70 61.26 99.76 56.27
  Q 99.80 53.80 97.37 53.35
  Q 96.96 53.27 96.55 53.29
  Q 93.58 53.44 93.54 56.41
  Q 93.48 61.95 93.54 68.07
  C 93.57 70.50 92.23 73.34 89.71 73.79
  Q 87.37 74.20 84.29 73.96
  Q 83.36 73.89 84.07 73.28
  Q 85.72 71.86 87.08 70.05
  Q 88.56 68.07 86.55 66.64
  L 85.95 66.21
  Q 83.80 64.69 81.94 66.55
  L 73.51 74.99
  A 3.24 3.23 43.9 0 0 73.60 79.64
  Q 77.61 83.37 81.69 87.50
  Q 83.91 89.74 86.23 87.83
  Q 86.39 87.69 86.53 87.51
  Q 88.31 85.12 86.18 83.04
  L 83.90 80.81
  Q 83.36 80.29 84.11 80.27"
/>
<path stroke="#87898a" vector-effect="non-scaling-stroke" d="
  M 54.43 19.85
  L 93.03 19.91
  A 0.50 0.50 0.0 0 0 93.54 19.41
  L 93.54 16.00
  A 2.83 2.49 0.1 0 0 90.72 13.51
  L 56.78 13.45
  A 2.83 2.49 0.1 0 0 53.94 15.94
  L 53.94 19.35
  A 0.50 0.50 0.0 0 0 54.43 19.85"
/>
<path stroke="#87898a" vector-effect="non-scaling-stroke" d="
  M 93.06 26.12
  L 54.44 26.12
  A 0.48 0.48 0.0 0 0 53.96 26.60
  L 53.96 38.07
  A 2.99 2.71 0.0 0 0 56.95 40.78
  L 90.55 40.78
  A 2.99 2.71 0.0 0 0 93.54 38.07
  L 93.54 26.60
  A 0.48 0.48 0.0 0 0 93.06 26.12"
/>
<path stroke="#87898a" vector-effect="non-scaling-stroke" d="
  M 16.68 60.98
  Q 16.36 64.28 16.36 64.28
  Q 16.21 65.76 17.65 65.75
  Q 35.74 65.69 54.73 65.75
  Q 56.12 65.76 56.06 64.37
  L 55.92 61.08
  A 1.65 1.65 0.0 0 0 54.27 59.50
  L 18.32 59.50
  A 1.65 1.65 0.0 0 0 16.68 60.98"
/>
<path stroke="#87898a" vector-effect="non-scaling-stroke" d="
  M 56.01 84.24
  L 56.02 72.50
  Q 56.02 71.98 55.50 71.98
  L 17.00 71.98
  Q 16.48 71.98 16.48 72.50
  L 16.49 84.49
  A 2.01 2.00 90.0 0 0 18.49 86.50
  L 53.75 86.50
  A 2.26 2.26 0.0 0 0 56.01 84.24"
/>
</g>
<path fill="#f5f5f5" d="
  M 0.00 0.00
  L 108.00 0.00
  L 108.00 97.00
  L 0.00 97.00
  L 0.00 0.00
  Z
  M 99.8586 16.2211
  A 8.63 8.63 0.0 0 0 91.2588 7.5610
  L 56.3590 7.4392
  A 8.63 8.63 0.0 0 0 47.6989 16.0390
  L 47.6214 38.2389
  A 8.63 8.63 0.0 0 0 56.2212 46.8990
  L 91.1210 47.0208
  A 8.63 8.63 0.0 0 0 99.7811 38.4210
  L 99.8586 16.2211
  Z
  M 25.69 19.88
  C 19.42 19.16 14.33 20.58 11.40 26.33
  Q 10.05 28.99 10.17 33.62
  Q 10.31 39.04 10.18 44.06
  A 2.60 2.58 21.8 0 0 11.04 46.05
  Q 12.19 47.08 13.39 46.99
  Q 16.28 46.77 16.40 43.87
  Q 16.61 38.77 16.43 32.22
  C 16.26 26.32 21.33 25.74 25.75 26.03
  Q 26.56 26.08 25.98 26.65
  L 23.47 29.13
  Q 21.71 30.88 23.17 32.87
  Q 23.59 33.44 24.13 33.88
  Q 26.04 35.43 27.80 33.71
  L 36.48 25.24
  A 3.11 3.11 0.0 0 0 36.49 20.79
  L 27.73 12.19
  Q 25.80 10.30 23.91 12.22
  L 23.38 12.77
  Q 21.41 14.76 23.39 16.75
  L 25.95 19.33
  Q 26.60 19.98 25.69 19.88
  Z
  M 62.34 62.13
  A 8.86 8.86 0.0 0 0 53.48 53.27
  L 19.02 53.27
  A 8.86 8.86 0.0 0 0 10.16 62.13
  L 10.16 83.85
  A 8.86 8.86 0.0 0 0 19.02 92.71
  L 53.48 92.71
  A 8.86 8.86 0.0 0 0 62.34 83.85
  L 62.34 62.13
  Z
  M 84.11 80.27
  Q 86.30 80.20 88.66 80.28
  C 93.01 80.44 96.76 77.57 98.58 73.75
  Q 99.94 70.89 99.83 66.74
  Q 99.70 61.26 99.76 56.27
  Q 99.80 53.80 97.37 53.35
  Q 96.96 53.27 96.55 53.29
  Q 93.58 53.44 93.54 56.41
  Q 93.48 61.95 93.54 68.07
  C 93.57 70.50 92.23 73.34 89.71 73.79
  Q 87.37 74.20 84.29 73.96
  Q 83.36 73.89 84.07 73.28
  Q 85.72 71.86 87.08 70.05
  Q 88.56 68.07 86.55 66.64
  L 85.95 66.21
  Q 83.80 64.69 81.94 66.55
  L 73.51 74.99
  A 3.24 3.23 43.9 0 0 73.60 79.64
  Q 77.61 83.37 81.69 87.50
  Q 83.91 89.74 86.23 87.83
  Q 86.39 87.69 86.53 87.51
  Q 88.31 85.12 86.18 83.04
  L 83.90 80.81
  Q 83.36 80.29 84.11 80.27
  Z"
/>
<path fill="#191c1f" d="
  M 99.7811 38.4210
  A 8.63 8.63 0.0 0 1 91.1210 47.0208
  L 56.2212 46.8990
  A 8.63 8.63 0.0 0 1 47.6214 38.2389
  L 47.6989 16.0390
  A 8.63 8.63 0.0 0 1 56.3590 7.4392
  L 91.2588 7.5610
  A 8.63 8.63 0.0 0 1 99.8586 16.2211
  L 99.7811 38.4210
  Z
  M 54.43 19.85
  L 93.03 19.91
  A 0.50 0.50 0.0 0 0 93.54 19.41
  L 93.54 16.00
  A 2.83 2.49 0.1 0 0 90.72 13.51
  L 56.78 13.45
  A 2.83 2.49 0.1 0 0 53.94 15.94
  L 53.94 19.35
  A 0.50 0.50 0.0 0 0 54.43 19.85
  Z
  M 93.06 26.12
  L 54.44 26.12
  A 0.48 0.48 0.0 0 0 53.96 26.60
  L 53.96 38.07
  A 2.99 2.71 0.0 0 0 56.95 40.78
  L 90.55 40.78
  A 2.99 2.71 0.0 0 0 93.54 38.07
  L 93.54 26.60
  A 0.48 0.48 0.0 0 0 93.06 26.12
  Z"
/>
<path fill="#191c1f" d="
  M 25.95 19.33
  L 23.39 16.75
  Q 21.41 14.76 23.38 12.77
  L 23.91 12.22
  Q 25.80 10.30 27.73 12.19
  L 36.49 20.79
  A 3.11 3.11 0.0 0 1 36.48 25.24
  L 27.80 33.71
  Q 26.04 35.43 24.13 33.88
  Q 23.59 33.44 23.17 32.87
  Q 21.71 30.88 23.47 29.13
  L 25.98 26.65
  Q 26.56 26.08 25.75 26.03
  C 21.33 25.74 16.26 26.32 16.43 32.22
  Q 16.61 38.77 16.40 43.87
  Q 16.28 46.77 13.39 46.99
  Q 12.19 47.08 11.04 46.05
  A 2.60 2.58 21.8 0 1 10.18 44.06
  Q 10.31 39.04 10.17 33.62
  Q 10.05 28.99 11.40 26.33
  C 14.33 20.58 19.42 19.16 25.69 19.88
  Q 26.60 19.98 25.95 19.33
  Z"
/>
<path fill="#f5f5f5" d="
  M 54.43 19.85
  A 0.50 0.50 0.0 0 1 53.94 19.35
  L 53.94 15.94
  A 2.83 2.49 0.1 0 1 56.78 13.45
  L 90.72 13.51
  A 2.83 2.49 0.1 0 1 93.54 16.00
  L 93.54 19.41
  A 0.50 0.50 0.0 0 1 93.03 19.91
  L 54.43 19.85
  Z"
/>
<path fill="#f5f5f5" d="
  M 93.06 26.12
  A 0.48 0.48 0.0 0 1 93.54 26.60
  L 93.54 38.07
  A 2.99 2.71 0.0 0 1 90.55 40.78
  L 56.95 40.78
  A 2.99 2.71 -0.0 0 1 53.96 38.07
  L 53.96 26.60
  A 0.48 0.48 0.0 0 1 54.44 26.12
  L 93.06 26.12
  Z"
/>
<path fill="#191c1f" d="
  M 62.34 83.85
  A 8.86 8.86 0.0 0 1 53.48 92.71
  L 19.02 92.71
  A 8.86 8.86 0.0 0 1 10.16 83.85
  L 10.16 62.13
  A 8.86 8.86 0.0 0 1 19.02 53.27
  L 53.48 53.27
  A 8.86 8.86 0.0 0 1 62.34 62.13
  L 62.34 83.85
  Z
  M 16.68 60.98
  Q 16.36 64.28 16.36 64.28
  Q 16.21 65.76 17.65 65.75
  Q 35.74 65.69 54.73 65.75
  Q 56.12 65.76 56.06 64.37
  L 55.92 61.08
  A 1.65 1.65 0.0 0 0 54.27 59.50
  L 18.32 59.50
  A 1.65 1.65 0.0 0 0 16.68 60.98
  Z
  M 56.01 84.24
  L 56.02 72.50
  Q 56.02 71.98 55.50 71.98
  L 17.00 71.98
  Q 16.48 71.98 16.48 72.50
  L 16.49 84.49
  A 2.01 2.00 90.0 0 0 18.49 86.50
  L 53.75 86.50
  A 2.26 2.26 0.0 0 0 56.01 84.24
  Z"
/>
<path fill="#191c1f" d="
  M 83.90 80.81
  L 86.18 83.04
  Q 88.31 85.12 86.53 87.51
  Q 86.39 87.69 86.23 87.83
  Q 83.91 89.74 81.69 87.50
  Q 77.61 83.37 73.60 79.64
  A 3.24 3.23 43.9 0 1 73.51 74.99
  L 81.94 66.55
  Q 83.80 64.69 85.95 66.21
  L 86.55 66.64
  Q 88.56 68.07 87.08 70.05
  Q 85.72 71.86 84.07 73.28
  Q 83.36 73.89 84.29 73.96
  Q 87.37 74.20 89.71 73.79
  C 92.23 73.34 93.57 70.50 93.54 68.07
  Q 93.48 61.95 93.54 56.41
  Q 93.58 53.44 96.55 53.29
  Q 96.96 53.27 97.37 53.35
  Q 99.80 53.80 99.76 56.27
  Q 99.70 61.26 99.83 66.74
  Q 99.94 70.89 98.58 73.75
  C 96.76 77.57 93.01 80.44 88.66 80.28
  Q 86.30 80.20 84.11 80.27
  Q 83.36 80.29 83.90 80.81
  Z"
/>
<path fill="#f5f5f5" d="
  M 18.32 59.50
  L 54.27 59.50
  A 1.65 1.65 0.0 0 1 55.92 61.08
  L 56.06 64.37
  Q 56.12 65.76 54.73 65.75
  Q 35.74 65.69 17.65 65.75
  Q 16.21 65.76 16.36 64.28
  Q 16.36 64.28 16.68 60.98
  A 1.65 1.65 0.0 0 1 18.32 59.50
  Z"
/>
<path fill="#f5f5f5" d="
  M 56.01 84.24
  A 2.26 2.26 0.0 0 1 53.75 86.50
  L 18.49 86.50
  A 2.01 2.00 90.0 0 1 16.49 84.49
  L 16.48 72.50
  Q 16.48 71.98 17.00 71.98
  L 55.50 71.98
  Q 56.02 71.98 56.02 72.50
  L 56.01 84.24
  Z"
/>
</svg>
