<svg width="18" height="18" viewBox="0 0 18 18" fill="none" xmlns="http://www.w3.org/2000/svg">
<g clip-path="url(#clip0_10599_22081)">
<path d="M14.3125 14.0132L12.7188 10.8257L11.125 14.0132" stroke="#191C1F" stroke-linecap="round" stroke-linejoin="round"/>
<path d="M11.4062 13.4512H14.0313" stroke="#191C1F" stroke-linecap="round" stroke-linejoin="round"/>
<path d="M12.7172 16.5003C10.6254 16.5003 8.92969 14.8045 8.92969 12.7128C8.92969 10.621 10.6254 8.92529 12.7172 8.92529C14.8089 8.92529 16.5047 10.621 16.5047 12.7128C16.5047 14.8045 14.8089 16.5003 12.7172 16.5003Z" stroke="#191C1F" stroke-linecap="round" stroke-linejoin="round"/>
<path d="M3.82813 1.5752H6.75313C7.99588 1.5752 9.00313 2.58245 9.00313 3.8252V6.7502C9.00313 7.99295 7.99588 9.0002 6.75313 9.0002H3.82813C2.58538 9.0002 1.57812 7.99295 1.57812 6.7502V3.8252C1.57813 2.58245 2.58538 1.5752 3.82813 1.5752Z" stroke="#191C1F" stroke-linecap="round" stroke-linejoin="round"/>
<path d="M6.81094 4.44385H3.77344" stroke="#191C1F" stroke-linecap="round" stroke-linejoin="round"/>
<path d="M5.28906 3.9375V4.44375" stroke="#191C1F" stroke-linecap="round" stroke-linejoin="round"/>
<path d="M6.05119 4.44385C6.05119 5.74885 5.03119 6.80635 3.77344 6.80635" stroke="#191C1F" stroke-linecap="round" stroke-linejoin="round"/>
<path d="M6.81044 6.80664C6.26444 6.80664 5.77619 6.51564 5.42969 6.05664" stroke="#191C1F" stroke-linecap="round" stroke-linejoin="round"/>
<path d="M10.9297 3.68701H12.0292C13.5472 3.68701 14.7772 4.91776 14.7772 6.43501" stroke="#191C1F" stroke-linecap="round" stroke-linejoin="round"/>
<path d="M10.9297 3.68701L11.7539 4.51126" stroke="#191C1F" stroke-linecap="round" stroke-linejoin="round"/>
<path d="M11.7539 2.86182L10.9297 3.68607" stroke="#191C1F" stroke-linecap="round" stroke-linejoin="round"/>
<path d="M7.08188 14.3129H5.98238C4.46438 14.3129 3.23438 13.0822 3.23438 11.5649" stroke="#191C1F" stroke-linecap="round" stroke-linejoin="round"/>
<path d="M7.08206 14.313L6.25781 13.4888" stroke="#191C1F" stroke-linecap="round" stroke-linejoin="round"/>
<path d="M6.25781 15.1382L7.08206 14.314" stroke="#191C1F" stroke-linecap="round" stroke-linejoin="round"/>
</g>
<defs>
<clipPath id="clip0_10599_22081">
<rect width="18" height="18" fill="white"/>
</clipPath>
</defs>
</svg>
