<?xml version="1.0" encoding="UTF-8" standalone="no"?>
<!DOCTYPE svg PUBLIC "-//W3C//DTD SVG 1.1//EN" "http://www.w3.org/Graphics/SVG/1.1/DTD/svg11.dtd">
<svg xmlns="http://www.w3.org/2000/svg" version="1.1" viewBox="0.00 0.00 100.00 93.00">
<g stroke-width="2.00" fill="none" stroke-linecap="butt">
<path stroke="#87898a" vector-effect="non-scaling-stroke" d="
  M 81.70 31.79
  Q 78.97 31.77 76.03 31.72
  C 57.07 31.38 56.76 58.14 75.38 58.75
  Q 78.49 58.86 81.64 58.69
  Q 82.38 58.65 82.38 59.38
  Q 82.40 63.50 82.33 67.64
  C 82.24 72.78 78.50 75.54 73.68 75.52
  Q 57.96 75.46 43.35 75.53
  A 2.60 2.60 0.0 0 0 40.76 78.09
  L 40.75 78.39
  Q 40.69 81.78 44.09 81.77
  Q 58.85 81.69 74.17 81.80
  Q 82.74 81.86 86.98 74.45
  C 89.46 70.13 88.56 63.61 88.64 58.53
  Q 88.65 57.69 89.40 57.30
  C 91.40 56.25 92.65 53.71 92.71 51.60
  Q 92.89 45.30 92.69 38.73
  Q 92.57 34.97 89.15 32.73
  A 1.02 1.01 14.9 0 1 88.69 31.94
  C 88.46 27.54 89.26 22.07 87.95 18.15
  Q 85.89 12.01 79.74 9.64
  Q 77.11 8.62 72.01 8.66
  Q 46.48 8.87 22.11 8.70
  C 12.99 8.63 7.25 14.71 7.34 23.79
  Q 7.40 30.96 7.38 36.49
  Q 7.37 39.50 10.35 39.97
  Q 10.84 40.05 11.33 39.87
  Q 13.44 39.08 13.54 36.83
  Q 13.76 32.01 13.58 26.00
  C 13.40 20.02 14.74 14.98 21.49 14.99
  Q 44.86 15.05 73.68 14.96
  C 83.73 14.92 82.49 23.25 82.38 31.12
  Q 82.37 31.80 81.70 31.79"
/>
<path stroke="#87898a" vector-effect="non-scaling-stroke" d="
  M 55.27 32.56
  A 3.04 3.04 0.0 0 0 52.23 29.52
  L 31.27 29.52
  A 3.04 3.04 0.0 0 0 28.23 32.56
  L 28.23 32.74
  A 3.04 3.04 0.0 0 0 31.27 35.78
  L 52.23 35.78
  A 3.04 3.04 0.0 0 0 55.27 32.74
  L 55.27 32.56"
/>
<path stroke="#87898a" vector-effect="non-scaling-stroke" d="
  M 23.09 81.68
  Q 26.44 82.01 29.13 80.65
  C 34.65 77.87 36.47 70.21 31.64 65.67
  Q 31.15 65.21 31.45 64.60
  Q 35.47 56.48 28.26 51.67
  Q 26.09 50.23 22.81 50.32
  Q 22.10 50.34 22.19 49.62
  C 22.57 46.67 19.28 45.42 17.07 46.90
  Q 16.53 47.26 16.30 47.85
  Q 15.97 48.70 15.96 49.56
  Q 15.96 50.23 15.29 50.24
  L 9.82 50.28
  A 2.48 2.47 -0.2 0 0 7.36 52.75
  L 7.35 78.92
  A 2.82 2.82 0.0 0 0 10.17 81.74
  L 15.30 81.75
  Q 16.04 81.75 15.99 82.49
  C 15.68 86.76 22.19 87.00 22.24 82.44
  Q 22.25 81.59 23.09 81.68"
/>
<path stroke="#87898a" vector-effect="non-scaling-stroke" d="
  M 86.52 51.49
  L 86.54 38.97
  A 0.99 0.99 0.0 0 0 85.55 37.97
  L 75.69 37.96
  A 7.81 7.13 0.1 0 0 67.87 45.07
  L 67.87 45.31
  A 7.81 7.13 0.1 0 0 75.67 52.46
  L 85.53 52.47
  A 0.99 0.99 0.0 0 0 86.52 51.49"
/>
<path stroke="#87898a" vector-effect="non-scaling-stroke" d="
  M 13.63 57.06
  L 13.61 62.66
  A 0.31 0.31 0.0 0 0 13.91 62.97
  L 23.40 63.02
  A 3.30 3.09 0.3 0 0 26.72 59.94
  L 26.72 59.90
  A 3.30 3.09 0.3 0 0 23.44 56.80
  L 13.95 56.75
  A 0.31 0.31 0.0 0 0 13.63 57.06"
/>
<path stroke="#87898a" vector-effect="non-scaling-stroke" d="
  M 13.61 69.64
  L 13.61 75.22
  A 0.22 0.22 0.0 0 0 13.83 75.44
  L 25.16 75.44
  A 3.03 2.95 0.0 0 0 28.19 72.49
  L 28.19 72.37
  A 3.03 2.95 -0.0 0 0 25.16 69.42
  L 13.83 69.42
  A 0.22 0.22 0.0 0 0 13.61 69.64"
/>
</g>
<path fill="#f5f5f5" d="
  M 0.00 0.00
  L 100.00 0.00
  L 100.00 93.00
  L 0.00 93.00
  L 0.00 0.00
  Z
  M 81.70 31.79
  Q 78.97 31.77 76.03 31.72
  C 57.07 31.38 56.76 58.14 75.38 58.75
  Q 78.49 58.86 81.64 58.69
  Q 82.38 58.65 82.38 59.38
  Q 82.40 63.50 82.33 67.64
  C 82.24 72.78 78.50 75.54 73.68 75.52
  Q 57.96 75.46 43.35 75.53
  A 2.60 2.60 0.0 0 0 40.76 78.09
  L 40.75 78.39
  Q 40.69 81.78 44.09 81.77
  Q 58.85 81.69 74.17 81.80
  Q 82.74 81.86 86.98 74.45
  C 89.46 70.13 88.56 63.61 88.64 58.53
  Q 88.65 57.69 89.40 57.30
  C 91.40 56.25 92.65 53.71 92.71 51.60
  Q 92.89 45.30 92.69 38.73
  Q 92.57 34.97 89.15 32.73
  A 1.02 1.01 14.9 0 1 88.69 31.94
  C 88.46 27.54 89.26 22.07 87.95 18.15
  Q 85.89 12.01 79.74 9.64
  Q 77.11 8.62 72.01 8.66
  Q 46.48 8.87 22.11 8.70
  C 12.99 8.63 7.25 14.71 7.34 23.79
  Q 7.40 30.96 7.38 36.49
  Q 7.37 39.50 10.35 39.97
  Q 10.84 40.05 11.33 39.87
  Q 13.44 39.08 13.54 36.83
  Q 13.76 32.01 13.58 26.00
  C 13.40 20.02 14.74 14.98 21.49 14.99
  Q 44.86 15.05 73.68 14.96
  C 83.73 14.92 82.49 23.25 82.38 31.12
  Q 82.37 31.80 81.70 31.79
  Z
  M 55.27 32.56
  A 3.04 3.04 0.0 0 0 52.23 29.52
  L 31.27 29.52
  A 3.04 3.04 0.0 0 0 28.23 32.56
  L 28.23 32.74
  A 3.04 3.04 0.0 0 0 31.27 35.78
  L 52.23 35.78
  A 3.04 3.04 0.0 0 0 55.27 32.74
  L 55.27 32.56
  Z
  M 23.09 81.68
  Q 26.44 82.01 29.13 80.65
  C 34.65 77.87 36.47 70.21 31.64 65.67
  Q 31.15 65.21 31.45 64.60
  Q 35.47 56.48 28.26 51.67
  Q 26.09 50.23 22.81 50.32
  Q 22.10 50.34 22.19 49.62
  C 22.57 46.67 19.28 45.42 17.07 46.90
  Q 16.53 47.26 16.30 47.85
  Q 15.97 48.70 15.96 49.56
  Q 15.96 50.23 15.29 50.24
  L 9.82 50.28
  A 2.48 2.47 -0.2 0 0 7.36 52.75
  L 7.35 78.92
  A 2.82 2.82 0.0 0 0 10.17 81.74
  L 15.30 81.75
  Q 16.04 81.75 15.99 82.49
  C 15.68 86.76 22.19 87.00 22.24 82.44
  Q 22.25 81.59 23.09 81.68
  Z"
/>
<path fill="#191c1f" d="
  M 82.38 31.12
  C 82.49 23.25 83.73 14.92 73.68 14.96
  Q 44.86 15.05 21.49 14.99
  C 14.74 14.98 13.40 20.02 13.58 26.00
  Q 13.76 32.01 13.54 36.83
  Q 13.44 39.08 11.33 39.87
  Q 10.84 40.05 10.35 39.97
  Q 7.37 39.50 7.38 36.49
  Q 7.40 30.96 7.34 23.79
  C 7.25 14.71 12.99 8.63 22.11 8.70
  Q 46.48 8.87 72.01 8.66
  Q 77.11 8.62 79.74 9.64
  Q 85.89 12.01 87.95 18.15
  C 89.26 22.07 88.46 27.54 88.69 31.94
  A 1.02 1.01 14.9 0 0 89.15 32.73
  Q 92.57 34.97 92.69 38.73
  Q 92.89 45.30 92.71 51.60
  C 92.65 53.71 91.40 56.25 89.40 57.30
  Q 88.65 57.69 88.64 58.53
  C 88.56 63.61 89.46 70.13 86.98 74.45
  Q 82.74 81.86 74.17 81.80
  Q 58.85 81.69 44.09 81.77
  Q 40.69 81.78 40.75 78.39
  L 40.76 78.09
  A 2.60 2.60 0.0 0 1 43.35 75.53
  Q 57.96 75.46 73.68 75.52
  C 78.50 75.54 82.24 72.78 82.33 67.64
  Q 82.40 63.50 82.38 59.38
  Q 82.38 58.65 81.64 58.69
  Q 78.49 58.86 75.38 58.75
  C 56.76 58.14 57.07 31.38 76.03 31.72
  Q 78.97 31.77 81.70 31.79
  Q 82.37 31.80 82.38 31.12
  Z
  M 86.52 51.49
  L 86.54 38.97
  A 0.99 0.99 0.0 0 0 85.55 37.97
  L 75.69 37.96
  A 7.81 7.13 0.1 0 0 67.87 45.07
  L 67.87 45.31
  A 7.81 7.13 0.1 0 0 75.67 52.46
  L 85.53 52.47
  A 0.99 0.99 0.0 0 0 86.52 51.49
  Z"
/>
<rect fill="#191c1f" x="28.23" y="29.52" width="27.04" height="6.26" rx="3.04"/>
<path fill="#f5f5f5" d="
  M 86.52 51.49
  A 0.99 0.99 0.0 0 1 85.53 52.47
  L 75.67 52.46
  A 7.81 7.13 0.1 0 1 67.87 45.31
  L 67.87 45.07
  A 7.81 7.13 0.1 0 1 75.69 37.96
  L 85.55 37.97
  A 0.99 0.99 0.0 0 1 86.54 38.97
  L 86.52 51.49
  Z"
/>
<path fill="#191c1f" d="
  M 22.24 82.44
  C 22.19 87.00 15.68 86.76 15.99 82.49
  Q 16.04 81.75 15.30 81.75
  L 10.17 81.74
  A 2.82 2.82 0.0 0 1 7.35 78.92
  L 7.36 52.75
  A 2.48 2.47 -0.2 0 1 9.82 50.28
  L 15.29 50.24
  Q 15.96 50.23 15.96 49.56
  Q 15.97 48.70 16.30 47.85
  Q 16.53 47.26 17.07 46.90
  C 19.28 45.42 22.57 46.67 22.19 49.62
  Q 22.10 50.34 22.81 50.32
  Q 26.09 50.23 28.26 51.67
  Q 35.47 56.48 31.45 64.60
  Q 31.15 65.21 31.64 65.67
  C 36.47 70.21 34.65 77.87 29.13 80.65
  Q 26.44 82.01 23.09 81.68
  Q 22.25 81.59 22.24 82.44
  Z
  M 13.63 57.06
  L 13.61 62.66
  A 0.31 0.31 0.0 0 0 13.91 62.97
  L 23.40 63.02
  A 3.30 3.09 0.3 0 0 26.72 59.94
  L 26.72 59.90
  A 3.30 3.09 0.3 0 0 23.44 56.80
  L 13.95 56.75
  A 0.31 0.31 0.0 0 0 13.63 57.06
  Z
  M 13.61 69.64
  L 13.61 75.22
  A 0.22 0.22 0.0 0 0 13.83 75.44
  L 25.16 75.44
  A 3.03 2.95 0.0 0 0 28.19 72.49
  L 28.19 72.37
  A 3.03 2.95 -0.0 0 0 25.16 69.42
  L 13.83 69.42
  A 0.22 0.22 0.0 0 0 13.61 69.64
  Z"
/>
<path fill="#f5f5f5" d="
  M 13.63 57.06
  A 0.31 0.31 0.0 0 1 13.95 56.75
  L 23.44 56.80
  A 3.30 3.09 0.3 0 1 26.72 59.90
  L 26.72 59.94
  A 3.30 3.09 0.3 0 1 23.40 63.02
  L 13.91 62.97
  A 0.31 0.31 0.0 0 1 13.61 62.66
  L 13.63 57.06
  Z"
/>
<path fill="#f5f5f5" d="
  M 13.61 69.64
  A 0.22 0.22 0.0 0 1 13.83 69.42
  L 25.16 69.42
  A 3.03 2.95 -0.0 0 1 28.19 72.37
  L 28.19 72.49
  A 3.03 2.95 -0.0 0 1 25.16 75.44
  L 13.83 75.44
  A 0.22 0.22 0.0 0 1 13.61 75.22
  L 13.61 69.64
  Z"
/>
</svg>
